<svg width="24" height="24" viewBox="0 0 24 24" fill="none" xmlns="http://www.w3.org/2000/svg">
<path d="M21.2493 3.98853C21.2493 3.1138 20.5401 2.40472 19.6654 2.40472H18.6344C17.9966 2.40472 5.38931 2.40472 4.96795 2.40472C4.58193 2.40472 2.08476 2.40472 1.58386 2.40472C0.709218 2.40472 0 3.11384 0 3.98853V22.07C0 22.5227 0.190265 22.9307 0.494812 23.2194H19.6654V23.6538H22.4397C23.1214 23.6538 23.7025 23.2232 23.9258 22.619C24.1108 22.1299 24.1763 23.0651 21.2493 3.98853Z" fill="#BABABA"/>
<path d="M22.216 22.07V10.2922L21.2488 3.98853C21.2488 3.1138 20.5397 2.40472 19.6649 2.40472C19.1464 2.40472 6.65685 2.40472 5.9347 2.40472H4.96753H4.58067C3.68479 2.40472 3.98615 2.40472 2.55065 2.40472C1.67602 2.40472 0.966797 3.1138 0.966797 3.98853V22.07C0.966797 22.5227 1.15706 22.9307 1.46161 23.2194H19.665V23.6538H20.6322C21.5068 23.6539 22.216 22.9448 22.216 22.07Z" fill="#A8A8A8"/>
<path d="M19.6654 2.40472C19.1112 2.40472 5.8807 2.40472 4.96795 2.40472C4.42148 2.40472 1.95333 2.40472 1.58386 2.40472C0.709218 2.40472 0 3.11384 0 3.98853V22.07C0 22.9448 0.709218 23.6538 1.58386 23.6538H19.6654C20.5401 23.6538 21.2493 22.9448 21.2493 22.07V3.98853C21.2493 3.11384 20.5401 2.40472 19.6654 2.40472Z" fill="#E6E6E6"/>
<path d="M0.967171 22.07V3.98853C0.967171 3.1138 1.67639 2.40472 2.55103 2.40472C2.00587 2.40472 2.13075 2.40472 1.58386 2.40472C0.709218 2.40472 0 3.11384 0 3.98853V22.07C0 22.9448 0.709218 23.6538 1.58386 23.6538H2.55103C1.67644 23.6539 0.967171 22.9448 0.967171 22.07Z" fill="#CCCBCA"/>
<path d="M19.6654 2.40472C19.0362 2.40472 6.01818 2.40472 4.96795 2.40472C1.21809 2.40472 5.09404 2.40472 1.58386 2.40472C0.709218 2.40472 0 3.11384 0 3.98853V8.05709H21.2493V3.98853C21.2493 3.11384 20.5401 2.40472 19.6654 2.40472Z" fill="#020202"/>
<path d="M0.967171 3.98853C0.967171 3.1138 1.67639 2.40472 2.55103 2.40472C2.00587 2.40472 2.13075 2.40472 1.58386 2.40472C0.709218 2.40472 0 3.11384 0 3.98853V8.05709H0.967171V3.98853Z" fill="#020202"/>
<path d="M16.9615 3.82071V4.15043C16.9615 4.47096 16.7017 4.48896 16.3812 4.48896H16.1877C15.8672 4.48896 15.6074 4.47096 15.6074 4.15043V3.82076C15.3006 4.03488 15.0996 4.39029 15.0996 4.79285C15.0996 5.44723 15.6301 5.97766 16.2844 5.97766C17.4449 5.97762 17.9059 4.47978 16.9615 3.82071Z" fill="#020202"/>
<path d="M10.9654 3.82071V4.15043C10.9654 4.47096 10.7056 4.44059 10.3851 4.44059H10.1916C9.87114 4.44059 9.61131 4.47096 9.61131 4.15043V3.82076C9.30447 4.03488 9.10352 4.39029 9.10352 4.79285C9.10352 5.44723 9.634 5.97766 10.2883 5.97766C10.9427 5.97766 11.4731 5.44723 11.4731 4.79285C11.4731 4.39029 11.2722 4.03484 10.9654 3.82071Z" fill="#494949"/>
<path d="M4.96838 3.82072V4.15044C4.96838 4.52412 4.61668 4.48897 4.19462 4.48897C3.87413 4.48897 3.61431 4.47097 3.61431 4.15044V3.82077C2.66898 4.48048 3.13234 5.97767 4.29132 5.97767C4.9457 5.97767 5.47613 5.44723 5.47613 4.79286C5.47613 4.3903 5.27518 4.03484 4.96838 3.82072Z" fill="#020202"/>
<path d="M16.1152 4.79286C16.1152 4.7704 16.116 4.74818 16.1173 4.72606C15.8301 4.69123 15.6074 4.44706 15.6074 4.15043V3.82076C15.3006 4.03489 15.0996 4.39029 15.0996 4.79286C15.0996 5.44723 15.6301 5.97767 16.2844 5.97767C16.4662 5.97767 16.6383 5.93665 16.7922 5.86348C16.392 5.67331 16.1152 5.26545 16.1152 4.79286Z" fill="#020202"/>
<path d="M10.1181 4.79286C10.1181 4.7704 10.119 4.74818 10.1202 4.72606C9.83299 4.69123 9.61034 4.44706 9.61034 4.15043V3.82076C9.30349 4.03489 9.10254 4.39029 9.10254 4.79286C9.10254 5.44723 9.63302 5.97767 10.2874 5.97767C10.4691 5.97767 10.6412 5.93665 10.7951 5.86348C10.3949 5.67331 10.1181 5.26545 10.1181 4.79286Z" fill="#494949"/>
<path d="M4.1241 4.72606C3.8369 4.69123 3.61424 4.44706 3.61424 4.15044V3.82077C3.3074 4.03489 3.10645 4.3903 3.10645 4.79286C3.10645 5.66548 4.01788 6.23469 4.79901 5.86348C4.3746 5.66178 4.09663 5.22092 4.1241 4.72606Z" fill="#020202"/>
<path d="M21.2494 8.0569H0V9.41098H21.2494V8.0569Z" fill="#70BEFC"/>
<path d="M0.967171 8.0569H0V9.41098H0.967171V8.0569Z" fill="#70BEFC"/>
<path d="M4.38802 0.346161C4.70855 0.346161 4.96833 0.605989 4.96833 0.926473V4.15044C4.96833 4.47097 4.70855 4.73075 4.38802 4.73075H4.19457C3.87409 4.73075 3.61426 4.47097 3.61426 4.15044V0.926473C3.61426 0.605989 3.87409 0.346161 4.19457 0.346161H4.38802Z" fill="#585A60"/>
<path d="M10.3841 0.346161C10.7046 0.346161 10.9644 0.605989 10.9644 0.926473V4.15044C10.9644 4.47097 10.7046 4.73075 10.3841 4.73075H10.1907C9.87018 4.73075 9.61035 4.47097 9.61035 4.15044V0.926473C9.61035 0.605989 9.87018 0.346161 10.1907 0.346161H10.3841Z" fill="#585A60"/>
<path d="M16.3812 0.346161C16.7017 0.346161 16.9615 0.605989 16.9615 0.926473V4.15044C16.9615 4.47097 16.7017 4.73075 16.3812 4.73075H16.1877C15.8672 4.73075 15.6074 4.47097 15.6074 4.15044V0.926473C15.6074 0.605989 15.8672 0.346161 16.1877 0.346161H16.3812Z" fill="#585A60"/>
<path d="M4.38802 0.346161C4.70855 0.346161 4.96833 0.605989 4.96833 0.926473V4.15044C4.96833 4.47097 4.70855 4.73075 4.38802 4.73075H4.19457C3.87409 4.73075 3.61426 4.47097 3.61426 4.15044V0.926473C3.61426 0.605989 3.87409 0.346161 4.19457 0.346161H4.38802Z" fill="#585A60"/>
<path d="M10.3841 0.346161C10.7046 0.346161 10.9644 0.605989 10.9644 0.926473V4.15044C10.9644 4.47097 10.7046 4.73075 10.3841 4.73075H10.1907C9.87018 4.73075 9.61035 4.47097 9.61035 4.15044V0.926473C9.61035 0.605989 9.87018 0.346161 10.1907 0.346161H10.3841Z" fill="#585A60"/>
<path d="M16.3812 0.346161C16.7017 0.346161 16.9615 0.605989 16.9615 0.926473V4.15044C16.9615 4.47097 16.7017 4.73075 16.3812 4.73075H16.1877C15.8672 4.73075 15.6074 4.47097 15.6074 4.15044V0.926473C15.6074 0.605989 15.8672 0.346161 16.1877 0.346161H16.3812Z" fill="#585A60"/>
<path d="M4.29127 4.15044V0.926473C4.29127 0.692379 4.43021 0.491192 4.6298 0.399411C4.55612 0.365567 4.47441 0.346161 4.38802 0.346161H4.19457C3.87409 0.346161 3.61426 0.605989 3.61426 0.926473V4.15044C3.61426 4.47097 3.87409 4.73075 4.19457 4.73075H4.38802C4.47446 4.73075 4.55616 4.71134 4.6298 4.6775C4.43021 4.58577 4.29127 4.38453 4.29127 4.15044Z" fill="#494949"/>
<path d="M10.2883 4.15044V0.926473C10.2883 0.692379 10.4273 0.491192 10.6269 0.399411C10.5532 0.365567 10.4715 0.346161 10.3851 0.346161H10.1916C9.87116 0.346161 9.61133 0.605989 9.61133 0.926473V4.15044C9.61133 4.47097 9.87116 4.73075 10.1916 4.73075H10.3851C10.4715 4.73075 10.5532 4.71134 10.6269 4.6775C10.4273 4.58577 10.2883 4.38453 10.2883 4.15044Z" fill="#494949"/>
<path d="M16.2844 4.15044V0.926473C16.2844 0.692379 16.4234 0.491192 16.623 0.399411C16.5493 0.365567 16.4676 0.346161 16.3812 0.346161H16.1877C15.8672 0.346161 15.6074 0.605989 15.6074 0.926473V4.15044C15.6074 4.47097 15.8672 4.73075 16.1877 4.73075H16.3812C16.4676 4.73075 16.5493 4.71134 16.623 4.6775C16.4234 4.58577 16.2844 4.38453 16.2844 4.15044Z" fill="#494949"/>
<path d="M7.90349 11.6334H6.7094C6.5091 11.6334 6.34668 11.7958 6.34668 11.9961C6.34668 12.1964 6.5091 12.3588 6.7094 12.3588H7.90349C8.10383 12.3588 8.26621 12.1964 8.26621 11.9961C8.26621 11.7958 8.10383 11.6334 7.90349 11.6334Z" fill="#585A60"/>
<path d="M11.2239 11.6334H10.0297C9.82941 11.6334 9.66699 11.7958 9.66699 11.9961C9.66699 12.1964 9.82941 12.3588 10.0297 12.3588H11.2239C11.4243 12.3588 11.5867 12.1964 11.5867 11.9961C11.5866 11.7958 11.4243 11.6334 11.2239 11.6334Z" fill="#585A60"/>
<path d="M14.5433 11.6334H13.349C13.1488 11.6334 12.9863 11.7958 12.9863 11.9961C12.9863 12.1964 13.1488 12.3588 13.349 12.3588H14.5433C14.7436 12.3588 14.906 12.1964 14.906 11.9961C14.906 11.7958 14.7436 11.6334 14.5433 11.6334Z" fill="#585A60"/>
<path d="M17.8626 11.6334H16.6684C16.4681 11.6334 16.3057 11.7958 16.3057 11.9961C16.3057 12.1964 16.4681 12.3588 16.6684 12.3588H17.8626C18.063 12.3588 18.2253 12.1964 18.2253 11.9961C18.2253 11.7958 18.063 11.6334 17.8626 11.6334Z" fill="#585A60"/>
<path d="M4.5843 14.5556H3.39006C3.18977 14.5556 3.02734 14.7179 3.02734 14.9183C3.02734 15.1186 3.18977 15.281 3.39006 15.281H4.5843C4.78464 15.281 4.94701 15.1186 4.94701 14.9183C4.94697 14.7179 4.78464 14.5556 4.5843 14.5556Z" fill="#585A60"/>
<path d="M7.90349 14.5556H6.7094C6.5091 14.5556 6.34668 14.7179 6.34668 14.9183C6.34668 15.1186 6.5091 15.281 6.7094 15.281H7.90349C8.10383 15.281 8.26621 15.1186 8.26621 14.9183C8.26621 14.7179 8.10383 14.5556 7.90349 14.5556Z" fill="#585A60"/>
<path d="M11.2239 14.5556H10.0297C9.82941 14.5556 9.66699 14.7179 9.66699 14.9183C9.66699 15.1186 9.82941 15.281 10.0297 15.281H11.2239C11.4243 15.281 11.5867 15.1186 11.5867 14.9183C11.5866 14.7179 11.4243 14.5556 11.2239 14.5556Z" fill="#585A60"/>
<path d="M14.5433 14.5556H13.349C13.1488 14.5556 12.9863 14.7179 12.9863 14.9183C12.9863 15.1186 13.1488 15.281 13.349 15.281H14.5433C14.7436 15.281 14.906 15.1186 14.906 14.9183C14.906 14.7179 14.7436 14.5556 14.5433 14.5556Z" fill="#585A60"/>
<path d="M17.8626 14.5556H16.6684C16.4681 14.5556 16.3057 14.7179 16.3057 14.9183C16.3057 15.1186 16.4681 15.281 16.6684 15.281H17.8626C18.063 15.281 18.2253 15.1186 18.2253 14.9183C18.2253 14.7179 18.063 14.5556 17.8626 14.5556Z" fill="#585A60"/>
<path d="M4.5843 17.4777H3.39006C3.18977 17.4777 3.02734 17.6401 3.02734 17.8405C3.02734 18.0408 3.18977 18.2032 3.39006 18.2032H4.5843C4.78464 18.2032 4.94701 18.0408 4.94701 17.8405C4.94701 17.6401 4.78464 17.4777 4.5843 17.4777Z" fill="#585A60"/>
<path d="M7.90349 17.4777H6.7094C6.5091 17.4777 6.34668 17.6401 6.34668 17.8405C6.34668 18.0408 6.5091 18.2032 6.7094 18.2032H7.90349C8.10383 18.2032 8.26621 18.0408 8.26621 17.8405C8.26621 17.6401 8.10383 17.4777 7.90349 17.4777Z" fill="#585A60"/>
<path d="M11.2239 17.4777H10.0297C9.82941 17.4777 9.66699 17.6401 9.66699 17.8405C9.66699 18.0408 9.82941 18.2032 10.0297 18.2032H11.2239C11.4243 18.2032 11.5867 18.0408 11.5867 17.8405C11.5867 17.6401 11.4243 17.4777 11.2239 17.4777Z" fill="#585A60"/>
<path d="M14.5433 17.4777H13.349C13.1488 17.4777 12.9863 17.6401 12.9863 17.8405C12.9863 18.0408 13.1488 18.2032 13.349 18.2032H14.5433C14.7436 18.2032 14.906 18.0408 14.906 17.8405C14.906 17.6401 14.7436 17.4777 14.5433 17.4777Z" fill="#585A60"/>
<path d="M17.8626 17.4777H16.6684C16.4681 17.4777 16.3057 17.6401 16.3057 17.8405C16.3057 18.0408 16.4681 18.2032 16.6684 18.2032H17.8626C18.063 18.2032 18.2253 18.0408 18.2253 17.8405C18.2253 17.6401 18.063 17.4777 17.8626 17.4777Z" fill="#585A60"/>
<path d="M4.5843 20.4H3.39006C3.18977 20.4 3.02734 20.5624 3.02734 20.7627C3.02734 20.963 3.18977 21.1254 3.39006 21.1254H4.5843C4.78464 21.1254 4.94701 20.963 4.94701 20.7627C4.94697 20.5624 4.78464 20.4 4.5843 20.4Z" fill="#585A60"/>
<path d="M7.90349 20.4H6.7094C6.5091 20.4 6.34668 20.5624 6.34668 20.7627C6.34668 20.963 6.5091 21.1254 6.7094 21.1254H7.90349C8.10383 21.1254 8.26621 20.963 8.26621 20.7627C8.26621 20.5624 8.10383 20.4 7.90349 20.4Z" fill="#585A60"/>
<path d="M11.2239 20.4H10.0297C9.82941 20.4 9.66699 20.5624 9.66699 20.7627C9.66699 20.963 9.82941 21.1254 10.0297 21.1254H11.2239C11.4243 21.1254 11.5867 20.963 11.5867 20.7627C11.5866 20.5624 11.4243 20.4 11.2239 20.4Z" fill="#585A60"/>
<path d="M14.5433 20.4H13.349C13.1488 20.4 12.9863 20.5624 12.9863 20.7627C12.9863 20.963 13.1488 21.1254 13.349 21.1254H14.5433C14.7436 21.1254 14.906 20.963 14.906 20.7627C14.906 20.5624 14.7436 20.4 14.5433 20.4Z" fill="#585A60"/>
</svg>
