<svg width="24" height="24" viewBox="0 0 24 24" fill="none" xmlns="http://www.w3.org/2000/svg">
<g opacity="0.16">
<path d="M18.057 0.642876H5.94301C2.38846 0.642876 0 3.03129 0 6.58588V17.8427C0 21.3973 2.38842 23.7857 5.94301 23.7857H18.057C21.6115 23.7857 24 21.3973 24 17.8427V6.58588C24 3.03129 21.6116 0.642876 18.057 0.642876ZM23.5714 17.8427C23.5714 21.141 21.3553 23.3571 18.057 23.3571H5.94301C2.64472 23.3571 0.428597 21.141 0.428597 17.8427V6.58588C0.428597 3.2876 2.64472 1.07147 5.94301 1.07147H18.057C21.3553 1.07147 23.5714 3.2876 23.5714 6.58588V17.8427Z" fill="black"/>
</g>
</svg>
