<svg width="1105" height="56" viewBox="0 0 1105 56" fill="none" xmlns="http://www.w3.org/2000/svg">
<g clip-path="url(#clip0_271_6773)">
<rect width="764" height="56" fill="#6ADD95"/>
<path d="M370.977 20.352L364.305 36H362.097L368.865 20.568H359.601V18.696H370.977V20.352ZM373.398 27.144C373.398 24.392 373.846 22.248 374.742 20.712C375.638 19.16 377.206 18.384 379.446 18.384C381.67 18.384 383.23 19.16 384.126 20.712C385.022 22.248 385.47 24.392 385.47 27.144C385.47 29.944 385.022 32.12 384.126 33.672C383.23 35.224 381.67 36 379.446 36C377.206 36 375.638 35.224 374.742 33.672C373.846 32.12 373.398 29.944 373.398 27.144ZM383.31 27.144C383.31 25.752 383.214 24.576 383.022 23.616C382.846 22.64 382.47 21.856 381.894 21.264C381.334 20.672 380.518 20.376 379.446 20.376C378.358 20.376 377.526 20.672 376.95 21.264C376.39 21.856 376.014 22.64 375.822 23.616C375.646 24.576 375.558 25.752 375.558 27.144C375.558 28.584 375.646 29.792 375.822 30.768C376.014 31.744 376.39 32.528 376.95 33.12C377.526 33.712 378.358 34.008 379.446 34.008C380.518 34.008 381.334 33.712 381.894 33.12C382.47 32.528 382.846 31.744 383.022 30.768C383.214 29.792 383.31 28.584 383.31 27.144ZM387.988 22.56C387.988 21.472 388.316 20.608 388.972 19.968C389.628 19.312 390.468 18.984 391.492 18.984C392.516 18.984 393.356 19.312 394.012 19.968C394.668 20.608 394.996 21.472 394.996 22.56C394.996 23.664 394.668 24.544 394.012 25.2C393.356 25.84 392.516 26.16 391.492 26.16C390.468 26.16 389.628 25.84 388.972 25.2C388.316 24.544 387.988 23.664 387.988 22.56ZM402.004 19.248L392.284 36L390.124 36L399.844 19.248H402.004ZM391.492 20.328C390.948 20.328 390.516 20.52 390.196 20.904C389.892 21.272 389.74 21.824 389.74 22.56C389.74 23.296 389.892 23.856 390.196 24.24C390.516 24.624 390.948 24.816 391.492 24.816C392.036 24.816 392.468 24.624 392.788 24.24C393.108 23.84 393.268 23.28 393.268 22.56C393.268 21.824 393.108 21.272 392.788 20.904C392.468 20.52 392.036 20.328 391.492 20.328ZM397.18 32.688C397.18 31.584 397.508 30.712 398.164 30.072C398.82 29.416 399.66 29.088 400.684 29.088C401.708 29.088 402.54 29.416 403.18 30.072C403.836 30.712 404.164 31.584 404.164 32.688C404.164 33.776 403.836 34.648 403.18 35.304C402.54 35.96 401.708 36.288 400.684 36.288C399.66 36.288 398.82 35.968 398.164 35.328C397.508 34.672 397.18 33.792 397.18 32.688ZM400.66 30.456C400.116 30.456 399.684 30.648 399.364 31.032C399.044 31.4 398.884 31.952 398.884 32.688C398.884 33.408 399.044 33.96 399.364 34.344C399.684 34.712 400.116 34.896 400.66 34.896C401.204 34.896 401.636 34.712 401.956 34.344C402.276 33.96 402.436 33.408 402.436 32.688C402.436 31.952 402.276 31.4 401.956 31.032C401.636 30.648 401.204 30.456 400.66 30.456Z" fill="white"/>
<rect width="110" height="56" transform="translate(764)" fill="#CECFD2"/>
<path d="M807.977 20.352L801.305 36H799.097L805.865 20.568H796.601V18.696H807.977V20.352ZM810.398 27.144C810.398 24.392 810.846 22.248 811.742 20.712C812.638 19.16 814.206 18.384 816.446 18.384C818.67 18.384 820.23 19.16 821.126 20.712C822.022 22.248 822.47 24.392 822.47 27.144C822.47 29.944 822.022 32.12 821.126 33.672C820.23 35.224 818.67 36 816.446 36C814.206 36 812.638 35.224 811.742 33.672C810.846 32.12 810.398 29.944 810.398 27.144ZM820.31 27.144C820.31 25.752 820.214 24.576 820.022 23.616C819.846 22.64 819.47 21.856 818.894 21.264C818.334 20.672 817.518 20.376 816.446 20.376C815.358 20.376 814.526 20.672 813.95 21.264C813.39 21.856 813.014 22.64 812.822 23.616C812.646 24.576 812.558 25.752 812.558 27.144C812.558 28.584 812.646 29.792 812.822 30.768C813.014 31.744 813.39 32.528 813.95 33.12C814.526 33.712 815.358 34.008 816.446 34.008C817.518 34.008 818.334 33.712 818.894 33.12C819.47 32.528 819.846 31.744 820.022 30.768C820.214 29.792 820.31 28.584 820.31 27.144ZM824.988 22.56C824.988 21.472 825.316 20.608 825.972 19.968C826.628 19.312 827.468 18.984 828.492 18.984C829.516 18.984 830.356 19.312 831.012 19.968C831.668 20.608 831.996 21.472 831.996 22.56C831.996 23.664 831.668 24.544 831.012 25.2C830.356 25.84 829.516 26.16 828.492 26.16C827.468 26.16 826.628 25.84 825.972 25.2C825.316 24.544 824.988 23.664 824.988 22.56ZM839.004 19.248L829.284 36L827.124 36L836.844 19.248H839.004ZM828.492 20.328C827.948 20.328 827.516 20.52 827.196 20.904C826.892 21.272 826.74 21.824 826.74 22.56C826.74 23.296 826.892 23.856 827.196 24.24C827.516 24.624 827.948 24.816 828.492 24.816C829.036 24.816 829.468 24.624 829.788 24.24C830.108 23.84 830.268 23.28 830.268 22.56C830.268 21.824 830.108 21.272 829.788 20.904C829.468 20.52 829.036 20.328 828.492 20.328ZM834.18 32.688C834.18 31.584 834.508 30.712 835.164 30.072C835.82 29.416 836.66 29.088 837.684 29.088C838.708 29.088 839.54 29.416 840.18 30.072C840.836 30.712 841.164 31.584 841.164 32.688C841.164 33.776 840.836 34.648 840.18 35.304C839.54 35.96 838.708 36.288 837.684 36.288C836.66 36.288 835.82 35.968 835.164 35.328C834.508 34.672 834.18 33.792 834.18 32.688ZM837.66 30.456C837.116 30.456 836.684 30.648 836.364 31.032C836.044 31.4 835.884 31.952 835.884 32.688C835.884 33.408 836.044 33.96 836.364 34.344C836.684 34.712 837.116 34.896 837.66 34.896C838.204 34.896 838.636 34.712 838.956 34.344C839.276 33.96 839.436 33.408 839.436 32.688C839.436 31.952 839.276 31.4 838.956 31.032C838.636 30.648 838.204 30.456 837.66 30.456Z" fill="white"/>
<rect width="231" height="56" transform="translate(874)" fill="#E96F6F"/>
<path d="M978.477 20.352L971.805 36H969.597L976.365 20.568H967.101V18.696H978.477V20.352ZM980.898 27.144C980.898 24.392 981.346 22.248 982.242 20.712C983.138 19.16 984.706 18.384 986.946 18.384C989.17 18.384 990.73 19.16 991.626 20.712C992.522 22.248 992.97 24.392 992.97 27.144C992.97 29.944 992.522 32.12 991.626 33.672C990.73 35.224 989.17 36 986.946 36C984.706 36 983.138 35.224 982.242 33.672C981.346 32.12 980.898 29.944 980.898 27.144ZM990.81 27.144C990.81 25.752 990.714 24.576 990.522 23.616C990.346 22.64 989.97 21.856 989.394 21.264C988.834 20.672 988.018 20.376 986.946 20.376C985.858 20.376 985.026 20.672 984.45 21.264C983.89 21.856 983.514 22.64 983.322 23.616C983.146 24.576 983.058 25.752 983.058 27.144C983.058 28.584 983.146 29.792 983.322 30.768C983.514 31.744 983.89 32.528 984.45 33.12C985.026 33.712 985.858 34.008 986.946 34.008C988.018 34.008 988.834 33.712 989.394 33.12C989.97 32.528 990.346 31.744 990.522 30.768C990.714 29.792 990.81 28.584 990.81 27.144ZM995.488 22.56C995.488 21.472 995.816 20.608 996.472 19.968C997.128 19.312 997.968 18.984 998.992 18.984C1000.02 18.984 1000.86 19.312 1001.51 19.968C1002.17 20.608 1002.5 21.472 1002.5 22.56C1002.5 23.664 1002.17 24.544 1001.51 25.2C1000.86 25.84 1000.02 26.16 998.992 26.16C997.968 26.16 997.128 25.84 996.472 25.2C995.816 24.544 995.488 23.664 995.488 22.56ZM1009.5 19.248L999.784 36L997.624 36L1007.34 19.248H1009.5ZM998.992 20.328C998.448 20.328 998.016 20.52 997.696 20.904C997.392 21.272 997.24 21.824 997.24 22.56C997.24 23.296 997.392 23.856 997.696 24.24C998.016 24.624 998.448 24.816 998.992 24.816C999.536 24.816 999.968 24.624 1000.29 24.24C1000.61 23.84 1000.77 23.28 1000.77 22.56C1000.77 21.824 1000.61 21.272 1000.29 20.904C999.968 20.52 999.536 20.328 998.992 20.328ZM1004.68 32.688C1004.68 31.584 1005.01 30.712 1005.66 30.072C1006.32 29.416 1007.16 29.088 1008.18 29.088C1009.21 29.088 1010.04 29.416 1010.68 30.072C1011.34 30.712 1011.66 31.584 1011.66 32.688C1011.66 33.776 1011.34 34.648 1010.68 35.304C1010.04 35.96 1009.21 36.288 1008.18 36.288C1007.16 36.288 1006.32 35.968 1005.66 35.328C1005.01 34.672 1004.68 33.792 1004.68 32.688ZM1008.16 30.456C1007.62 30.456 1007.18 30.648 1006.86 31.032C1006.54 31.4 1006.38 31.952 1006.38 32.688C1006.38 33.408 1006.54 33.96 1006.86 34.344C1007.18 34.712 1007.62 34.896 1008.16 34.896C1008.7 34.896 1009.14 34.712 1009.46 34.344C1009.78 33.96 1009.94 33.408 1009.94 32.688C1009.94 31.952 1009.78 31.4 1009.46 31.032C1009.14 30.648 1008.7 30.456 1008.16 30.456Z" fill="white"/>
</g>
<defs>
<clipPath id="clip0_271_6773">
<rect width="1105" height="56" rx="8" fill="white"/>
</clipPath>
</defs>
</svg>
