<svg width="1002" height="46" viewBox="0 0 1002 46" fill="none" xmlns="http://www.w3.org/2000/svg">
<g clip-path="url(#clip0_271_6921)">
<rect width="570" height="46" fill="#6ADD95"/>
<path d="M273.977 15.352L267.305 31H265.097L271.865 15.568L262.601 15.568V13.696L273.977 13.696V15.352ZM276.398 22.144C276.398 19.392 276.846 17.248 277.742 15.712C278.638 14.16 280.206 13.384 282.446 13.384C284.67 13.384 286.23 14.16 287.126 15.712C288.022 17.248 288.47 19.392 288.47 22.144C288.47 24.944 288.022 27.12 287.126 28.672C286.23 30.224 284.67 31 282.446 31C280.206 31 278.638 30.224 277.742 28.672C276.846 27.12 276.398 24.944 276.398 22.144ZM286.31 22.144C286.31 20.752 286.214 19.576 286.022 18.616C285.846 17.64 285.47 16.856 284.894 16.264C284.334 15.672 283.518 15.376 282.446 15.376C281.358 15.376 280.526 15.672 279.95 16.264C279.39 16.856 279.014 17.64 278.822 18.616C278.646 19.576 278.558 20.752 278.558 22.144C278.558 23.584 278.646 24.792 278.822 25.768C279.014 26.744 279.39 27.528 279.95 28.12C280.526 28.712 281.358 29.008 282.446 29.008C283.518 29.008 284.334 28.712 284.894 28.12C285.47 27.528 285.846 26.744 286.022 25.768C286.214 24.792 286.31 23.584 286.31 22.144ZM290.988 17.56C290.988 16.472 291.316 15.608 291.972 14.968C292.628 14.312 293.468 13.984 294.492 13.984C295.516 13.984 296.356 14.312 297.012 14.968C297.668 15.608 297.996 16.472 297.996 17.56C297.996 18.664 297.668 19.544 297.012 20.2C296.356 20.84 295.516 21.16 294.492 21.16C293.468 21.16 292.628 20.84 291.972 20.2C291.316 19.544 290.988 18.664 290.988 17.56ZM305.004 14.248L295.284 31L293.124 31L302.844 14.248H305.004ZM294.492 15.328C293.948 15.328 293.516 15.52 293.196 15.904C292.892 16.272 292.74 16.824 292.74 17.56C292.74 18.296 292.892 18.856 293.196 19.24C293.516 19.624 293.948 19.816 294.492 19.816C295.036 19.816 295.468 19.624 295.788 19.24C296.108 18.84 296.268 18.28 296.268 17.56C296.268 16.824 296.108 16.272 295.788 15.904C295.468 15.52 295.036 15.328 294.492 15.328ZM300.18 27.688C300.18 26.584 300.508 25.712 301.164 25.072C301.82 24.416 302.66 24.088 303.684 24.088C304.708 24.088 305.54 24.416 306.18 25.072C306.836 25.712 307.164 26.584 307.164 27.688C307.164 28.776 306.836 29.648 306.18 30.304C305.54 30.96 304.708 31.288 303.684 31.288C302.66 31.288 301.82 30.968 301.164 30.328C300.508 29.672 300.18 28.792 300.18 27.688ZM303.66 25.456C303.116 25.456 302.684 25.648 302.364 26.032C302.044 26.4 301.884 26.952 301.884 27.688C301.884 28.408 302.044 28.96 302.364 29.344C302.684 29.712 303.116 29.896 303.66 29.896C304.204 29.896 304.636 29.712 304.956 29.344C305.276 28.96 305.436 28.408 305.436 27.688C305.436 26.952 305.276 26.4 304.956 26.032C304.636 25.648 304.204 25.456 303.66 25.456Z" fill="white"/>
<rect width="201" height="46" transform="translate(570)" fill="#CECFD2"/>
<path d="M659.477 15.352L652.805 31H650.597L657.365 15.568L648.101 15.568V13.696L659.477 13.696V15.352ZM661.898 22.144C661.898 19.392 662.346 17.248 663.242 15.712C664.138 14.16 665.706 13.384 667.946 13.384C670.17 13.384 671.73 14.16 672.626 15.712C673.522 17.248 673.97 19.392 673.97 22.144C673.97 24.944 673.522 27.12 672.626 28.672C671.73 30.224 670.17 31 667.946 31C665.706 31 664.138 30.224 663.242 28.672C662.346 27.12 661.898 24.944 661.898 22.144ZM671.81 22.144C671.81 20.752 671.714 19.576 671.522 18.616C671.346 17.64 670.97 16.856 670.394 16.264C669.834 15.672 669.018 15.376 667.946 15.376C666.858 15.376 666.026 15.672 665.45 16.264C664.89 16.856 664.514 17.64 664.322 18.616C664.146 19.576 664.058 20.752 664.058 22.144C664.058 23.584 664.146 24.792 664.322 25.768C664.514 26.744 664.89 27.528 665.45 28.12C666.026 28.712 666.858 29.008 667.946 29.008C669.018 29.008 669.834 28.712 670.394 28.12C670.97 27.528 671.346 26.744 671.522 25.768C671.714 24.792 671.81 23.584 671.81 22.144ZM676.488 17.56C676.488 16.472 676.816 15.608 677.472 14.968C678.128 14.312 678.968 13.984 679.992 13.984C681.016 13.984 681.856 14.312 682.512 14.968C683.168 15.608 683.496 16.472 683.496 17.56C683.496 18.664 683.168 19.544 682.512 20.2C681.856 20.84 681.016 21.16 679.992 21.16C678.968 21.16 678.128 20.84 677.472 20.2C676.816 19.544 676.488 18.664 676.488 17.56ZM690.504 14.248L680.784 31L678.624 31L688.344 14.248H690.504ZM679.992 15.328C679.448 15.328 679.016 15.52 678.696 15.904C678.392 16.272 678.24 16.824 678.24 17.56C678.24 18.296 678.392 18.856 678.696 19.24C679.016 19.624 679.448 19.816 679.992 19.816C680.536 19.816 680.968 19.624 681.288 19.24C681.608 18.84 681.768 18.28 681.768 17.56C681.768 16.824 681.608 16.272 681.288 15.904C680.968 15.52 680.536 15.328 679.992 15.328ZM685.68 27.688C685.68 26.584 686.008 25.712 686.664 25.072C687.32 24.416 688.16 24.088 689.184 24.088C690.208 24.088 691.04 24.416 691.68 25.072C692.336 25.712 692.664 26.584 692.664 27.688C692.664 28.776 692.336 29.648 691.68 30.304C691.04 30.96 690.208 31.288 689.184 31.288C688.16 31.288 687.32 30.968 686.664 30.328C686.008 29.672 685.68 28.792 685.68 27.688ZM689.16 25.456C688.616 25.456 688.184 25.648 687.864 26.032C687.544 26.4 687.384 26.952 687.384 27.688C687.384 28.408 687.544 28.96 687.864 29.344C688.184 29.712 688.616 29.896 689.16 29.896C689.704 29.896 690.136 29.712 690.456 29.344C690.776 28.96 690.936 28.408 690.936 27.688C690.936 26.952 690.776 26.4 690.456 26.032C690.136 25.648 689.704 25.456 689.16 25.456Z" fill="white"/>
<rect width="231" height="46" transform="translate(771)" fill="#E96F6F"/>
<path d="M875.477 15.352L868.805 31H866.597L873.365 15.568L864.101 15.568V13.696L875.477 13.696V15.352ZM877.898 22.144C877.898 19.392 878.346 17.248 879.242 15.712C880.138 14.16 881.706 13.384 883.946 13.384C886.17 13.384 887.73 14.16 888.626 15.712C889.522 17.248 889.97 19.392 889.97 22.144C889.97 24.944 889.522 27.12 888.626 28.672C887.73 30.224 886.17 31 883.946 31C881.706 31 880.138 30.224 879.242 28.672C878.346 27.12 877.898 24.944 877.898 22.144ZM887.81 22.144C887.81 20.752 887.714 19.576 887.522 18.616C887.346 17.64 886.97 16.856 886.394 16.264C885.834 15.672 885.018 15.376 883.946 15.376C882.858 15.376 882.026 15.672 881.45 16.264C880.89 16.856 880.514 17.64 880.322 18.616C880.146 19.576 880.058 20.752 880.058 22.144C880.058 23.584 880.146 24.792 880.322 25.768C880.514 26.744 880.89 27.528 881.45 28.12C882.026 28.712 882.858 29.008 883.946 29.008C885.018 29.008 885.834 28.712 886.394 28.12C886.97 27.528 887.346 26.744 887.522 25.768C887.714 24.792 887.81 23.584 887.81 22.144ZM892.488 17.56C892.488 16.472 892.816 15.608 893.472 14.968C894.128 14.312 894.968 13.984 895.992 13.984C897.016 13.984 897.856 14.312 898.512 14.968C899.168 15.608 899.496 16.472 899.496 17.56C899.496 18.664 899.168 19.544 898.512 20.2C897.856 20.84 897.016 21.16 895.992 21.16C894.968 21.16 894.128 20.84 893.472 20.2C892.816 19.544 892.488 18.664 892.488 17.56ZM906.504 14.248L896.784 31L894.624 31L904.344 14.248H906.504ZM895.992 15.328C895.448 15.328 895.016 15.52 894.696 15.904C894.392 16.272 894.24 16.824 894.24 17.56C894.24 18.296 894.392 18.856 894.696 19.24C895.016 19.624 895.448 19.816 895.992 19.816C896.536 19.816 896.968 19.624 897.288 19.24C897.608 18.84 897.768 18.28 897.768 17.56C897.768 16.824 897.608 16.272 897.288 15.904C896.968 15.52 896.536 15.328 895.992 15.328ZM901.68 27.688C901.68 26.584 902.008 25.712 902.664 25.072C903.32 24.416 904.16 24.088 905.184 24.088C906.208 24.088 907.04 24.416 907.68 25.072C908.336 25.712 908.664 26.584 908.664 27.688C908.664 28.776 908.336 29.648 907.68 30.304C907.04 30.96 906.208 31.288 905.184 31.288C904.16 31.288 903.32 30.968 902.664 30.328C902.008 29.672 901.68 28.792 901.68 27.688ZM905.16 25.456C904.616 25.456 904.184 25.648 903.864 26.032C903.544 26.4 903.384 26.952 903.384 27.688C903.384 28.408 903.544 28.96 903.864 29.344C904.184 29.712 904.616 29.896 905.16 29.896C905.704 29.896 906.136 29.712 906.456 29.344C906.776 28.96 906.936 28.408 906.936 27.688C906.936 26.952 906.776 26.4 906.456 26.032C906.136 25.648 905.704 25.456 905.16 25.456Z" fill="white"/>
</g>
<defs>
<clipPath id="clip0_271_6921">
<rect width="1002" height="46" rx="8" fill="white"/>
</clipPath>
</defs>
</svg>
