<svg width="24" height="26" viewBox="0 0 24 26" fill="none" xmlns="http://www.w3.org/2000/svg">
<path d="M0.75 5.23089H12.169C12.5131 6.79741 13.9121 7.97345 15.5805 7.97345C17.2488 7.97345 18.6478 6.79745 18.9919 5.23089H23.25C23.6642 5.23089 24 4.89508 24 4.48089C24 4.0667 23.6642 3.73089 23.25 3.73089H18.9915C18.6467 2.16517 17.2459 0.988377 15.5805 0.988377C13.9141 0.988377 12.5139 2.16499 12.1693 3.73089H0.75C0.335812 3.73089 0 4.0667 0 4.48089C0 4.89508 0.335812 5.23089 0.75 5.23089ZM13.588 4.48286C13.588 4.48019 13.588 4.47747 13.588 4.4748C13.5913 3.37947 14.4851 2.48842 15.5805 2.48842C16.6743 2.48842 17.5681 3.37825 17.5728 4.47306L17.573 4.48408C17.5712 5.58128 16.6781 6.4735 15.5805 6.4735C14.4833 6.4735 13.5904 5.58217 13.5879 4.48563L13.588 4.48286ZM23.25 20.7691H18.9915C18.6467 19.2034 17.2459 18.0265 15.5805 18.0265C13.9141 18.0265 12.5139 19.2032 12.1693 20.7691H0.75C0.335812 20.7691 0 21.1048 0 21.5191C0 21.9333 0.335812 22.2691 0.75 22.2691H12.169C12.5131 23.8356 13.9121 25.0116 15.5805 25.0116C17.2488 25.0116 18.6478 23.8356 18.9919 22.2691H23.25C23.6642 22.2691 24 21.9333 24 21.5191C24 21.1048 23.6642 20.7691 23.25 20.7691ZM15.5805 23.5116C14.4833 23.5116 13.5904 22.6203 13.5879 21.5238L13.588 21.521C13.588 21.5183 13.588 21.5156 13.588 21.513C13.5913 20.4176 14.4851 19.5265 15.5805 19.5265C16.6743 19.5265 17.5681 20.4164 17.5728 21.5111L17.573 21.5222C17.5714 22.6195 16.6782 23.5116 15.5805 23.5116ZM23.25 12.25H11.831C11.4869 10.6835 10.0879 9.50749 8.41955 9.50749C6.75117 9.50749 5.35223 10.6835 5.00808 12.25H0.75C0.335812 12.25 0 12.5858 0 13C0 13.4142 0.335812 13.75 0.75 13.75H5.00845C5.35331 15.3157 6.75413 16.4925 8.41955 16.4925C10.0859 16.4925 11.4861 15.3159 11.8307 13.75H23.25C23.6642 13.75 24 13.4142 24 13C24 12.5858 23.6642 12.25 23.25 12.25ZM10.412 12.998C10.412 13.0008 10.412 13.0034 10.412 13.0061C10.4087 14.1014 9.51492 14.9925 8.41955 14.9925C7.32572 14.9925 6.43191 14.1026 6.42717 13.0079L6.42703 12.9969C6.42867 11.8996 7.32188 11.0075 8.41955 11.0075C9.5167 11.0075 10.4096 11.8988 10.4121 12.9954L10.412 12.998Z" fill="black"/>
</svg>
