<svg width="611" height="76" viewBox="0 0 611 76" fill="none" xmlns="http://www.w3.org/2000/svg">
<g clip-path="url(#clip0_271_7145)">
<rect width="287" height="76" fill="#6ADD95"/>
<path d="M132.477 30.352L125.805 46H123.597L130.365 30.568H121.101V28.696H132.477V30.352ZM134.898 37.144C134.898 34.392 135.346 32.248 136.242 30.712C137.138 29.16 138.706 28.384 140.946 28.384C143.17 28.384 144.73 29.16 145.626 30.712C146.522 32.248 146.97 34.392 146.97 37.144C146.97 39.944 146.522 42.12 145.626 43.672C144.73 45.224 143.17 46 140.946 46C138.706 46 137.138 45.224 136.242 43.672C135.346 42.12 134.898 39.944 134.898 37.144ZM144.81 37.144C144.81 35.752 144.714 34.576 144.522 33.616C144.346 32.64 143.97 31.856 143.394 31.264C142.834 30.672 142.018 30.376 140.946 30.376C139.858 30.376 139.026 30.672 138.45 31.264C137.89 31.856 137.514 32.64 137.322 33.616C137.146 34.576 137.058 35.752 137.058 37.144C137.058 38.584 137.146 39.792 137.322 40.768C137.514 41.744 137.89 42.528 138.45 43.12C139.026 43.712 139.858 44.008 140.946 44.008C142.018 44.008 142.834 43.712 143.394 43.12C143.97 42.528 144.346 41.744 144.522 40.768C144.714 39.792 144.81 38.584 144.81 37.144ZM149.488 32.56C149.488 31.472 149.816 30.608 150.472 29.968C151.128 29.312 151.968 28.984 152.992 28.984C154.016 28.984 154.856 29.312 155.512 29.968C156.168 30.608 156.496 31.472 156.496 32.56C156.496 33.664 156.168 34.544 155.512 35.2C154.856 35.84 154.016 36.16 152.992 36.16C151.968 36.16 151.128 35.84 150.472 35.2C149.816 34.544 149.488 33.664 149.488 32.56ZM163.504 29.248L153.784 46L151.624 46L161.344 29.248H163.504ZM152.992 30.328C152.448 30.328 152.016 30.52 151.696 30.904C151.392 31.272 151.24 31.824 151.24 32.56C151.24 33.296 151.392 33.856 151.696 34.24C152.016 34.624 152.448 34.816 152.992 34.816C153.536 34.816 153.968 34.624 154.288 34.24C154.608 33.84 154.768 33.28 154.768 32.56C154.768 31.824 154.608 31.272 154.288 30.904C153.968 30.52 153.536 30.328 152.992 30.328ZM158.68 42.688C158.68 41.584 159.008 40.712 159.664 40.072C160.32 39.416 161.16 39.088 162.184 39.088C163.208 39.088 164.04 39.416 164.68 40.072C165.336 40.712 165.664 41.584 165.664 42.688C165.664 43.776 165.336 44.648 164.68 45.304C164.04 45.96 163.208 46.288 162.184 46.288C161.16 46.288 160.32 45.968 159.664 45.328C159.008 44.672 158.68 43.792 158.68 42.688ZM162.16 40.456C161.616 40.456 161.184 40.648 160.864 41.032C160.544 41.4 160.384 41.952 160.384 42.688C160.384 43.408 160.544 43.96 160.864 44.344C161.184 44.712 161.616 44.896 162.16 44.896C162.704 44.896 163.136 44.712 163.456 44.344C163.776 43.96 163.936 43.408 163.936 42.688C163.936 41.952 163.776 41.4 163.456 41.032C163.136 40.648 162.704 40.456 162.16 40.456Z" fill="white"/>
<rect width="93" height="76" transform="translate(287)" fill="#CECFD2"/>
<path d="M322.477 30.352L315.805 46H313.597L320.365 30.568H311.101V28.696H322.477V30.352ZM324.898 37.144C324.898 34.392 325.346 32.248 326.242 30.712C327.138 29.16 328.706 28.384 330.946 28.384C333.17 28.384 334.73 29.16 335.626 30.712C336.522 32.248 336.97 34.392 336.97 37.144C336.97 39.944 336.522 42.12 335.626 43.672C334.73 45.224 333.17 46 330.946 46C328.706 46 327.138 45.224 326.242 43.672C325.346 42.12 324.898 39.944 324.898 37.144ZM334.81 37.144C334.81 35.752 334.714 34.576 334.522 33.616C334.346 32.64 333.97 31.856 333.394 31.264C332.834 30.672 332.018 30.376 330.946 30.376C329.858 30.376 329.026 30.672 328.45 31.264C327.89 31.856 327.514 32.64 327.322 33.616C327.146 34.576 327.058 35.752 327.058 37.144C327.058 38.584 327.146 39.792 327.322 40.768C327.514 41.744 327.89 42.528 328.45 43.12C329.026 43.712 329.858 44.008 330.946 44.008C332.018 44.008 332.834 43.712 333.394 43.12C333.97 42.528 334.346 41.744 334.522 40.768C334.714 39.792 334.81 38.584 334.81 37.144ZM339.488 32.56C339.488 31.472 339.816 30.608 340.472 29.968C341.128 29.312 341.968 28.984 342.992 28.984C344.016 28.984 344.856 29.312 345.512 29.968C346.168 30.608 346.496 31.472 346.496 32.56C346.496 33.664 346.168 34.544 345.512 35.2C344.856 35.84 344.016 36.16 342.992 36.16C341.968 36.16 341.128 35.84 340.472 35.2C339.816 34.544 339.488 33.664 339.488 32.56ZM353.504 29.248L343.784 46L341.624 46L351.344 29.248H353.504ZM342.992 30.328C342.448 30.328 342.016 30.52 341.696 30.904C341.392 31.272 341.24 31.824 341.24 32.56C341.24 33.296 341.392 33.856 341.696 34.24C342.016 34.624 342.448 34.816 342.992 34.816C343.536 34.816 343.968 34.624 344.288 34.24C344.608 33.84 344.768 33.28 344.768 32.56C344.768 31.824 344.608 31.272 344.288 30.904C343.968 30.52 343.536 30.328 342.992 30.328ZM348.68 42.688C348.68 41.584 349.008 40.712 349.664 40.072C350.32 39.416 351.16 39.088 352.184 39.088C353.208 39.088 354.04 39.416 354.68 40.072C355.336 40.712 355.664 41.584 355.664 42.688C355.664 43.776 355.336 44.648 354.68 45.304C354.04 45.96 353.208 46.288 352.184 46.288C351.16 46.288 350.32 45.968 349.664 45.328C349.008 44.672 348.68 43.792 348.68 42.688ZM352.16 40.456C351.616 40.456 351.184 40.648 350.864 41.032C350.544 41.4 350.384 41.952 350.384 42.688C350.384 43.408 350.544 43.96 350.864 44.344C351.184 44.712 351.616 44.896 352.16 44.896C352.704 44.896 353.136 44.712 353.456 44.344C353.776 43.96 353.936 43.408 353.936 42.688C353.936 41.952 353.776 41.4 353.456 41.032C353.136 40.648 352.704 40.456 352.16 40.456Z" fill="white"/>
<rect width="231" height="76" transform="translate(380)" fill="#E96F6F"/>
<path d="M484.477 30.352L477.805 46H475.597L482.365 30.568H473.101V28.696H484.477V30.352ZM486.898 37.144C486.898 34.392 487.346 32.248 488.242 30.712C489.138 29.16 490.706 28.384 492.946 28.384C495.17 28.384 496.73 29.16 497.626 30.712C498.522 32.248 498.97 34.392 498.97 37.144C498.97 39.944 498.522 42.12 497.626 43.672C496.73 45.224 495.17 46 492.946 46C490.706 46 489.138 45.224 488.242 43.672C487.346 42.12 486.898 39.944 486.898 37.144ZM496.81 37.144C496.81 35.752 496.714 34.576 496.522 33.616C496.346 32.64 495.97 31.856 495.394 31.264C494.834 30.672 494.018 30.376 492.946 30.376C491.858 30.376 491.026 30.672 490.45 31.264C489.89 31.856 489.514 32.64 489.322 33.616C489.146 34.576 489.058 35.752 489.058 37.144C489.058 38.584 489.146 39.792 489.322 40.768C489.514 41.744 489.89 42.528 490.45 43.12C491.026 43.712 491.858 44.008 492.946 44.008C494.018 44.008 494.834 43.712 495.394 43.12C495.97 42.528 496.346 41.744 496.522 40.768C496.714 39.792 496.81 38.584 496.81 37.144ZM501.488 32.56C501.488 31.472 501.816 30.608 502.472 29.968C503.128 29.312 503.968 28.984 504.992 28.984C506.016 28.984 506.856 29.312 507.512 29.968C508.168 30.608 508.496 31.472 508.496 32.56C508.496 33.664 508.168 34.544 507.512 35.2C506.856 35.84 506.016 36.16 504.992 36.16C503.968 36.16 503.128 35.84 502.472 35.2C501.816 34.544 501.488 33.664 501.488 32.56ZM515.504 29.248L505.784 46L503.624 46L513.344 29.248H515.504ZM504.992 30.328C504.448 30.328 504.016 30.52 503.696 30.904C503.392 31.272 503.24 31.824 503.24 32.56C503.24 33.296 503.392 33.856 503.696 34.24C504.016 34.624 504.448 34.816 504.992 34.816C505.536 34.816 505.968 34.624 506.288 34.24C506.608 33.84 506.768 33.28 506.768 32.56C506.768 31.824 506.608 31.272 506.288 30.904C505.968 30.52 505.536 30.328 504.992 30.328ZM510.68 42.688C510.68 41.584 511.008 40.712 511.664 40.072C512.32 39.416 513.16 39.088 514.184 39.088C515.208 39.088 516.04 39.416 516.68 40.072C517.336 40.712 517.664 41.584 517.664 42.688C517.664 43.776 517.336 44.648 516.68 45.304C516.04 45.96 515.208 46.288 514.184 46.288C513.16 46.288 512.32 45.968 511.664 45.328C511.008 44.672 510.68 43.792 510.68 42.688ZM514.16 40.456C513.616 40.456 513.184 40.648 512.864 41.032C512.544 41.4 512.384 41.952 512.384 42.688C512.384 43.408 512.544 43.96 512.864 44.344C513.184 44.712 513.616 44.896 514.16 44.896C514.704 44.896 515.136 44.712 515.456 44.344C515.776 43.96 515.936 43.408 515.936 42.688C515.936 41.952 515.776 41.4 515.456 41.032C515.136 40.648 514.704 40.456 514.16 40.456Z" fill="white"/>
</g>
<defs>
<clipPath id="clip0_271_7145">
<rect width="611" height="76" rx="8" fill="white"/>
</clipPath>
</defs>
</svg>
