<svg width="119" height="117" viewBox="0 0 119 117" fill="none" xmlns="http://www.w3.org/2000/svg">
<path d="M97.4357 98.6838C118.524 77.5955 118.524 43.4045 97.4357 22.3162C76.3474 1.22792 42.1565 1.22792 21.0682 22.3162C-0.0201225 43.4045 -0.0201263 77.5955 21.0682 98.6838" stroke="#DDF4FF" stroke-width="9" stroke-linecap="round"/>
<path d="M21.0682 98.6838C-0.0201225 77.5955 -0.0201254 43.4045 21.0682 22.3162C42.1565 1.22792 76.3474 1.22793 97.4357 22.3162C110.149 35.0294 115.198 52.5045 112.583 69" stroke="url(#paint0_linear_270_1881)" stroke-width="9" stroke-linecap="round"/>
<path d="M59.584 0V117" stroke="white"/>
<path d="M18.2178 17.1343L91.2178 90.1343" stroke="white"/>
<path d="M1.08398 58.5L118.084 58.5" stroke="white"/>
<path d="M28.9492 89.1343L100.949 17.1343" stroke="white"/>
<path d="M54.2204 46.5L50.4942 40.1026H48.025V46.5H45.9824V30.8545H51.0329C52.2151 30.8545 53.2103 31.0565 54.0183 31.4606C54.8414 31.8646 55.455 32.4108 55.859 33.0992C56.263 33.7876 56.4651 34.5732 56.4651 35.4561C56.4651 36.5336 56.1508 37.4838 55.5223 38.3069C54.9087 39.1299 53.9809 39.6761 52.7389 39.9455L56.6671 46.5H54.2204ZM48.025 38.464H51.0329C52.1403 38.464 52.9708 38.1946 53.5245 37.6559C54.0782 37.1022 54.3551 36.369 54.3551 35.4561C54.3551 34.5283 54.0782 33.81 53.5245 33.3012C52.9858 32.7924 52.1553 32.538 51.0329 32.538H48.025V38.464ZM58.8758 38.666C58.8758 37.1396 59.22 35.7704 59.9084 34.5583C60.5968 33.3312 61.532 32.3734 62.7142 31.685C63.9114 30.9967 65.2358 30.6525 66.6873 30.6525C68.3933 30.6525 69.8823 31.064 71.1543 31.8871C72.4263 32.7101 73.3541 33.8774 73.9377 35.3888H71.491C71.057 34.446 70.4285 33.7202 69.6054 33.2114C68.7974 32.7026 67.8247 32.4482 66.6873 32.4482C65.5949 32.4482 64.6147 32.7026 63.7468 33.2114C62.8789 33.7202 62.198 34.446 61.7041 35.3888C61.2103 36.3166 60.9634 37.409 60.9634 38.666C60.9634 39.9081 61.2103 41.0005 61.7041 41.9433C62.198 42.8711 62.8789 43.5894 63.7468 44.0982C64.6147 44.607 65.5949 44.8614 66.6873 44.8614C67.8247 44.8614 68.7974 44.6145 69.6054 44.1206C70.4285 43.6118 71.057 42.886 71.491 41.9433H73.9377C73.3541 43.4397 72.4263 44.5995 71.1543 45.4225C69.8823 46.2306 68.3933 46.6347 66.6873 46.6347C65.2358 46.6347 63.9114 46.298 62.7142 45.6246C61.532 44.9362 60.5968 43.9859 59.9084 42.7738C59.22 41.5617 58.8758 40.1924 58.8758 38.666Z" fill="#020202"/>
<path d="M35.0927 58.164V55.166H41.8833V81.2808H38.5602V58.164H35.0927ZM63.6027 57.7305L53.5613 81.2808H50.2383L60.4241 58.0556H46.4818V55.2382H63.6027V57.7305ZM66.8498 78.644C69.908 76.1878 72.3039 74.1772 74.0377 72.612C75.7715 71.0227 77.2283 69.3732 78.4082 67.6635C79.6122 65.9298 80.2142 64.2321 80.2142 62.5706C80.2142 61.0054 79.8289 59.7773 79.0584 58.8864C78.3119 57.9713 77.0959 57.5138 75.4103 57.5138C73.7728 57.5138 72.4966 58.0315 71.5815 59.067C70.6906 60.0783 70.209 61.4388 70.1367 63.1485H66.9582C67.0545 60.4516 67.8732 58.3686 69.4143 56.8998C70.9555 55.4309 72.9421 54.6964 75.3741 54.6964C77.8544 54.6964 79.8169 55.3827 81.2617 56.7553C82.7306 58.1278 83.465 60.0181 83.465 62.4261C83.465 64.4248 82.863 66.3752 81.659 68.2776C80.4791 70.1558 79.1306 71.8173 77.6136 73.2621C76.0965 74.6828 74.1581 76.3444 71.7983 78.2467H84.2235V80.9918H66.8498V78.644Z" fill="url(#paint1_linear_270_1881)"/>
<defs>
<linearGradient id="paint0_linear_270_1881" x1="113.252" y1="52.5919" x2="5.25195" y2="52.5919" gradientUnits="userSpaceOnUse">
<stop stop-color="#5ABB81"/>
<stop offset="1" stop-color="#A4EDCA"/>
</linearGradient>
<linearGradient id="paint1_linear_270_1881" x1="86.252" y1="68.7808" x2="33.252" y2="68.7808" gradientUnits="userSpaceOnUse">
<stop stop-color="#5ABB81"/>
<stop offset="1" stop-color="#A4EDCA"/>
</linearGradient>
</defs>
</svg>
