<svg width="300" height="229" viewBox="0 0 229 229" fill="none" xmlns="http://www.w3.org/2000/svg">
<path fill-rule="evenodd" clip-rule="evenodd" d="M81.2992 57.1458C112.86 38.9242 153.217 49.7377 171.438 81.2985C183.571 102.313 182.831 127.228 171.665 146.911L171.645 146.9C171.582 147.028 171.514 147.155 171.442 147.281C169.66 150.366 165.715 151.424 162.63 149.642C159.545 147.861 158.487 143.916 160.269 140.83C160.333 140.719 160.4 140.611 160.469 140.505C169.438 124.673 170.027 104.641 160.271 87.7424C145.61 62.3487 113.139 53.6482 87.7452 68.3092C62.3514 82.9703 53.6509 115.441 68.312 140.835L68.3133 140.837L68.31 140.839C68.3784 140.943 68.4442 141.05 68.5073 141.159C70.2886 144.245 69.2315 148.19 66.1461 149.971C63.0608 151.752 59.1156 150.695 57.3343 147.61C57.2712 147.501 57.2116 147.39 57.1556 147.279L57.1462 147.284C38.925 115.724 49.7385 75.3674 81.2992 57.1458ZM147.054 171.57C147.132 171.526 147.209 171.482 147.285 171.438C147.362 171.393 147.439 171.349 147.516 171.304L147.054 171.57Z" fill="#DDF4FF"/>
<path fill-rule="evenodd" clip-rule="evenodd" d="M68.312 140.835L68.3133 140.837L68.31 140.839C68.3784 140.943 68.4442 141.05 68.5073 141.159C70.2886 144.245 69.2315 148.19 66.1462 149.971C63.0608 151.752 59.1156 150.695 57.3343 147.61C57.2712 147.501 57.2117 147.39 57.1557 147.279L57.1463 147.284C38.925 115.724 49.7386 75.3674 81.2992 57.1458C112.86 38.9242 153.217 49.7377 171.438 81.2985C177.782 92.286 180.606 104.34 180.262 116.154L167.306 111.215C166.848 103.201 164.558 95.1688 160.271 87.7424C145.61 62.3487 113.139 53.6481 87.7452 68.3092C62.3515 82.9703 53.651 115.441 68.312 140.835Z" fill="#0866FF"/>
<path d="M79.3514 102.584V98.5899H88.3983V133.382H83.9711V102.584H79.3514ZM117.334 102.007L103.957 133.382H99.5294L113.1 102.44H94.5247V98.6861H117.334V102.007ZM121.66 129.869C125.735 126.597 128.927 123.918 131.237 121.833C133.546 119.715 135.487 117.518 137.059 115.24C138.663 112.93 139.465 110.668 139.465 108.455C139.465 106.37 138.952 104.733 137.925 103.546C136.931 102.327 135.311 101.718 133.065 101.718C130.884 101.718 129.183 102.408 127.964 103.787C126.777 105.134 126.136 106.947 126.039 109.225H121.805C121.933 105.632 123.024 102.857 125.077 100.9C127.13 98.9428 129.777 97.9643 133.017 97.9643C136.321 97.9643 138.936 98.8786 140.861 100.707C142.818 102.536 143.796 105.054 143.796 108.262C143.796 110.925 142.994 113.524 141.39 116.058C139.818 118.56 138.022 120.774 136.001 122.699C133.979 124.592 131.397 126.805 128.253 129.34H144.807V132.997H121.66V129.869Z" fill="#0866FF"/>
</svg>
