<svg width="21" height="21" viewBox="0 0 21 21" fill="none" xmlns="http://www.w3.org/2000/svg">
<rect width="20" height="20" transform="translate(0.571533 0.569824)" fill="#20589A"/>
<path d="M6.02163 4.06982C5.487 4.06982 5.04663 4.5102 5.04663 5.04482V16.0948C5.04663 16.6295 5.487 17.0698 6.02163 17.0698H15.1216C15.6563 17.0698 16.0966 16.6295 16.0966 16.0948V7.96982H13.1716C12.637 7.96982 12.1966 7.52945 12.1966 6.99482V4.06982H6.02163ZM12.8466 4.26025V6.99482C12.8466 7.17817 12.9883 7.31982 13.1716 7.31982H15.9062L12.8466 4.26025ZM7.80913 7.31982H10.7341C10.7768 7.31982 10.8191 7.32823 10.8585 7.34456C10.8979 7.3609 10.9338 7.38483 10.9639 7.41501C10.9941 7.44519 11.0181 7.48102 11.0344 7.52045C11.0507 7.55988 11.0591 7.60214 11.0591 7.64482C11.0591 7.73102 11.0249 7.81368 10.9639 7.87463C10.903 7.93558 10.8203 7.96982 10.7341 7.96982H7.80913C7.72294 7.96982 7.64027 7.93558 7.57932 7.87463C7.51837 7.81368 7.48413 7.73102 7.48413 7.64482C7.48413 7.60214 7.49254 7.55988 7.50887 7.52045C7.5252 7.48102 7.54914 7.44519 7.57932 7.41501C7.6095 7.38483 7.64533 7.3609 7.68476 7.34456C7.72419 7.32823 7.76645 7.31982 7.80913 7.31982ZM7.80913 9.26982H13.3341C13.4203 9.26982 13.503 9.30406 13.5639 9.36501C13.6249 9.42596 13.6591 9.50863 13.6591 9.59482C13.6591 9.68102 13.6249 9.76368 13.5639 9.82463C13.503 9.88558 13.4203 9.91982 13.3341 9.91982H7.80913C7.72294 9.91982 7.64027 9.88558 7.57932 9.82463C7.51837 9.76368 7.48413 9.68102 7.48413 9.59482C7.48413 9.50863 7.51837 9.42596 7.57932 9.36501C7.64027 9.30406 7.72294 9.26982 7.80913 9.26982ZM7.80913 11.2198H13.3341C13.4203 11.2198 13.503 11.2541 13.5639 11.315C13.6249 11.376 13.6591 11.4586 13.6591 11.5448C13.6591 11.631 13.6249 11.7137 13.5639 11.7746C13.503 11.8356 13.4203 11.8698 13.3341 11.8698H7.80913C7.72294 11.8698 7.64027 11.8356 7.57932 11.7746C7.51837 11.7137 7.48413 11.631 7.48413 11.5448C7.48413 11.4586 7.51837 11.376 7.57932 11.315C7.64027 11.2541 7.72294 11.2198 7.80913 11.2198ZM7.80913 13.1698H13.3341C13.4203 13.1698 13.503 13.2041 13.5639 13.265C13.6249 13.326 13.6591 13.4086 13.6591 13.4948C13.6591 13.581 13.6249 13.6637 13.5639 13.7246C13.503 13.7856 13.4203 13.8198 13.3341 13.8198H7.80913C7.72294 13.8198 7.64027 13.7856 7.57932 13.7246C7.51837 13.6637 7.48413 13.581 7.48413 13.4948C7.48413 13.4086 7.51837 13.326 7.57932 13.265C7.64027 13.2041 7.72294 13.1698 7.80913 13.1698Z" fill="white"/>
</svg>
