<svg width="1282" height="307" viewBox="0 0 1282 307" fill="none" xmlns="http://www.w3.org/2000/svg">
<path d="M10.336 37.238C8.74933 37.238 7.32133 36.966 6.052 36.422C4.78267 35.8553 3.78533 35.062 3.06 34.042C2.33467 33.022 1.972 31.832 1.972 30.472H6.12C6.21067 31.492 6.60733 32.3307 7.31 32.988C8.03533 33.6453 9.044 33.974 10.336 33.974C11.6733 33.974 12.716 33.6567 13.464 33.022C14.212 32.3647 14.586 31.526 14.586 30.506C14.586 29.7127 14.348 29.0667 13.872 28.568C13.4187 28.0693 12.8407 27.684 12.138 27.412C11.458 27.14 10.506 26.8453 9.282 26.528C7.74067 26.12 6.48267 25.712 5.508 25.304C4.556 24.8733 3.74 24.216 3.06 23.332C2.38 22.448 2.04 21.2693 2.04 19.796C2.04 18.436 2.38 17.246 3.06 16.226C3.74 15.206 4.692 14.424 5.916 13.88C7.14 13.336 8.55667 13.064 10.166 13.064C12.4553 13.064 14.3253 13.642 15.776 14.798C17.2493 15.9313 18.0653 17.4953 18.224 19.49H13.94C13.872 18.6287 13.464 17.892 12.716 17.28C11.968 16.668 10.982 16.362 9.758 16.362C8.64733 16.362 7.74067 16.6453 7.038 17.212C6.33533 17.7787 5.984 18.5947 5.984 19.66C5.984 20.3853 6.19933 20.986 6.63 21.462C7.08333 21.9153 7.65 22.278 8.33 22.55C9.01 22.822 9.93933 23.1167 11.118 23.434C12.682 23.8647 13.9513 24.2953 14.926 24.726C15.9233 25.1567 16.762 25.8253 17.442 26.732C18.1447 27.616 18.496 28.806 18.496 30.302C18.496 31.5033 18.1673 32.6367 17.51 33.702C16.8753 34.7673 15.9347 35.6287 14.688 36.286C13.464 36.9207 12.0133 37.238 10.336 37.238ZM21.7775 27.616C21.7775 25.6893 22.1629 24.0007 22.9335 22.55C23.7269 21.0767 24.8149 19.9433 26.1975 19.15C27.5802 18.3567 29.1669 17.96 30.9575 17.96C33.2242 17.96 35.0942 18.504 36.5675 19.592C38.0635 20.6573 39.0722 22.1873 39.5935 24.182H35.4115C35.0715 23.2527 34.5275 22.5273 33.7795 22.006C33.0315 21.4847 32.0909 21.224 30.9575 21.224C29.3709 21.224 28.1015 21.7907 27.1495 22.924C26.2202 24.0347 25.7555 25.5987 25.7555 27.616C25.7555 29.6333 26.2202 31.2087 27.1495 32.342C28.1015 33.4753 29.3709 34.042 30.9575 34.042C33.2015 34.042 34.6862 33.056 35.4115 31.084H39.5935C39.0495 32.988 38.0295 34.5067 36.5335 35.64C35.0375 36.7507 33.1789 37.306 30.9575 37.306C29.1669 37.306 27.5802 36.9093 26.1975 36.116C24.8149 35.3 23.7269 34.1667 22.9335 32.716C22.1629 31.2427 21.7775 29.5427 21.7775 27.616ZM51.5823 37.306C49.8143 37.306 48.2163 36.9093 46.7883 36.116C45.3603 35.3 44.2383 34.1667 43.4223 32.716C42.6063 31.2427 42.1983 29.5427 42.1983 27.616C42.1983 25.712 42.6176 24.0233 43.4563 22.55C44.2949 21.0767 45.4396 19.9433 46.8903 19.15C48.3409 18.3567 49.9616 17.96 51.7523 17.96C53.5429 17.96 55.1636 18.3567 56.6143 19.15C58.0649 19.9433 59.2096 21.0767 60.0483 22.55C60.8869 24.0233 61.3063 25.712 61.3063 27.616C61.3063 29.52 60.8756 31.2087 60.0143 32.682C59.1529 34.1553 57.9743 35.3 56.4783 36.116C55.0049 36.9093 53.3729 37.306 51.5823 37.306ZM51.5823 33.94C52.5796 33.94 53.5089 33.702 54.3703 33.226C55.2543 32.75 55.9683 32.036 56.5123 31.084C57.0563 30.132 57.3283 28.976 57.3283 27.616C57.3283 26.256 57.0676 25.1113 56.5463 24.182C56.0249 23.23 55.3336 22.516 54.4723 22.04C53.6109 21.564 52.6816 21.326 51.6843 21.326C50.6869 21.326 49.7576 21.564 48.8963 22.04C48.0576 22.516 47.3889 23.23 46.8903 24.182C46.3916 25.1113 46.1423 26.256 46.1423 27.616C46.1423 29.6333 46.6523 31.1973 47.6723 32.308C48.7149 33.396 50.0183 33.94 51.5823 33.94ZM69.0139 20.986C69.5806 20.034 70.3286 19.2973 71.2579 18.776C72.2099 18.232 73.3319 17.96 74.6239 17.96V21.972H73.6379C72.1192 21.972 70.9632 22.3573 70.1699 23.128C69.3992 23.8987 69.0139 25.236 69.0139 27.14V37H65.1379V18.266H69.0139V20.986ZM95.3567 27.174C95.3567 27.8767 95.3114 28.5113 95.2207 29.078H80.9067C81.0201 30.574 81.5754 31.7753 82.5727 32.682C83.5701 33.5887 84.7941 34.042 86.2447 34.042C88.3301 34.042 89.8034 33.1693 90.6647 31.424H94.8467C94.2801 33.1467 93.2487 34.5633 91.7527 35.674C90.2794 36.762 88.4434 37.306 86.2447 37.306C84.4541 37.306 82.8447 36.9093 81.4167 36.116C80.0114 35.3 78.9007 34.1667 78.0847 32.716C77.2914 31.2427 76.8947 29.5427 76.8947 27.616C76.8947 25.6893 77.2801 24.0007 78.0507 22.55C78.8441 21.0767 79.9434 19.9433 81.3487 19.15C82.7767 18.3567 84.4087 17.96 86.2447 17.96C88.0127 17.96 89.5881 18.3453 90.9707 19.116C92.3534 19.8867 93.4301 20.9747 94.2007 22.38C94.9714 23.7627 95.3567 25.3607 95.3567 27.174ZM91.3107 25.95C91.2881 24.522 90.7781 23.3773 89.7807 22.516C88.7834 21.6547 87.5481 21.224 86.0747 21.224C84.7374 21.224 83.5927 21.6547 82.6407 22.516C81.6887 23.3547 81.1221 24.4993 80.9407 25.95H91.3107ZM115.721 13.37C118.237 13.37 120.436 13.8573 122.317 14.832C124.221 15.784 125.683 17.1667 126.703 18.98C127.746 20.7707 128.267 22.8673 128.267 25.27C128.267 27.6727 127.746 29.758 126.703 31.526C125.683 33.294 124.221 34.654 122.317 35.606C120.436 36.5353 118.237 37 115.721 37H108.003V13.37H115.721ZM115.721 33.838C118.486 33.838 120.606 33.09 122.079 31.594C123.552 30.098 124.289 27.99 124.289 25.27C124.289 22.5273 123.552 20.3853 122.079 18.844C120.606 17.3027 118.486 16.532 115.721 16.532H111.879V33.838H115.721ZM134.081 15.784C133.378 15.784 132.789 15.546 132.313 15.07C131.837 14.594 131.599 14.0047 131.599 13.302C131.599 12.5993 131.837 12.01 132.313 11.534C132.789 11.058 133.378 10.82 134.081 10.82C134.761 10.82 135.339 11.058 135.815 11.534C136.291 12.01 136.529 12.5993 136.529 13.302C136.529 14.0047 136.291 14.594 135.815 15.07C135.339 15.546 134.761 15.784 134.081 15.784ZM135.985 18.266V37H132.109V18.266H135.985ZM147.873 37.306C146.4 37.306 145.074 37.0453 143.895 36.524C142.739 35.98 141.821 35.2547 141.141 34.348C140.461 33.4187 140.099 32.3873 140.053 31.254H144.065C144.133 32.0473 144.507 32.716 145.187 33.26C145.89 33.7813 146.763 34.042 147.805 34.042C148.893 34.042 149.732 33.838 150.321 33.43C150.933 32.9993 151.239 32.4553 151.239 31.798C151.239 31.0953 150.899 30.574 150.219 30.234C149.562 29.894 148.508 29.52 147.057 29.112C145.652 28.7267 144.507 28.3527 143.623 27.99C142.739 27.6273 141.969 27.072 141.311 26.324C140.677 25.576 140.359 24.59 140.359 23.366C140.359 22.3687 140.654 21.462 141.243 20.646C141.833 19.8073 142.671 19.15 143.759 18.674C144.87 18.198 146.139 17.96 147.567 17.96C149.698 17.96 151.409 18.504 152.701 19.592C154.016 20.6573 154.719 22.1193 154.809 23.978H150.933C150.865 23.1393 150.525 22.4707 149.913 21.972C149.301 21.4733 148.474 21.224 147.431 21.224C146.411 21.224 145.629 21.4167 145.085 21.802C144.541 22.1873 144.269 22.6973 144.269 23.332C144.269 23.8307 144.451 24.25 144.813 24.59C145.176 24.93 145.618 25.202 146.139 25.406C146.661 25.5873 147.431 25.8253 148.451 26.12C149.811 26.4827 150.922 26.8567 151.783 27.242C152.667 27.6047 153.427 28.1487 154.061 28.874C154.696 29.5993 155.025 30.5627 155.047 31.764C155.047 32.8293 154.753 33.7813 154.163 34.62C153.574 35.4587 152.735 36.116 151.647 36.592C150.582 37.068 149.324 37.306 147.873 37.306ZM163.758 21.428V31.798C163.758 32.5007 163.916 33.0107 164.234 33.328C164.574 33.6227 165.14 33.77 165.934 33.77H168.314V37H165.254C163.508 37 162.171 36.592 161.242 35.776C160.312 34.96 159.848 33.634 159.848 31.798V21.428H157.638V18.266H159.848V13.608H163.758V18.266H168.314V21.428H163.758ZM175.762 20.986C176.329 20.034 177.077 19.2973 178.006 18.776C178.958 18.232 180.08 17.96 181.372 17.96V21.972H180.386C178.867 21.972 177.711 22.3573 176.918 23.128C176.147 23.8987 175.762 25.236 175.762 27.14V37H171.886V18.266H175.762V20.986ZM186.907 15.784C186.204 15.784 185.615 15.546 185.139 15.07C184.663 14.594 184.425 14.0047 184.425 13.302C184.425 12.5993 184.663 12.01 185.139 11.534C185.615 11.058 186.204 10.82 186.907 10.82C187.587 10.82 188.165 11.058 188.641 11.534C189.117 12.01 189.355 12.5993 189.355 13.302C189.355 14.0047 189.117 14.594 188.641 15.07C188.165 15.546 187.587 15.784 186.907 15.784ZM188.811 18.266V37H184.935V18.266H188.811ZM197.776 21.054C198.433 20.1473 199.328 19.4107 200.462 18.844C201.618 18.2547 202.898 17.96 204.304 17.96C205.958 17.96 207.454 18.3567 208.792 19.15C210.129 19.9433 211.183 21.0767 211.954 22.55C212.724 24.0007 213.11 25.6667 213.11 27.548C213.11 29.4293 212.724 31.118 211.954 32.614C211.183 34.0873 210.118 35.2433 208.758 36.082C207.42 36.898 205.936 37.306 204.304 37.306C202.853 37.306 201.561 37.0227 200.428 36.456C199.317 35.8893 198.433 35.164 197.776 34.28V37H193.9V11.84H197.776V21.054ZM209.166 27.548C209.166 26.256 208.894 25.1453 208.35 24.216C207.828 23.264 207.126 22.55 206.242 22.074C205.38 21.5753 204.451 21.326 203.454 21.326C202.479 21.326 201.55 21.5753 200.666 22.074C199.804 22.5727 199.102 23.298 198.558 24.25C198.036 25.202 197.776 26.324 197.776 27.616C197.776 28.908 198.036 30.0413 198.558 31.016C199.102 31.968 199.804 32.6933 200.666 33.192C201.55 33.6907 202.479 33.94 203.454 33.94C204.451 33.94 205.38 33.6907 206.242 33.192C207.126 32.6707 207.828 31.9227 208.35 30.948C208.894 29.9733 209.166 28.84 209.166 27.548ZM233.909 18.266V37H230.033V34.79C229.421 35.5607 228.616 36.1727 227.619 36.626C226.644 37.0567 225.601 37.272 224.491 37.272C223.017 37.272 221.691 36.966 220.513 36.354C219.357 35.742 218.439 34.8353 217.759 33.634C217.101 32.4327 216.773 30.982 216.773 29.282V18.266H220.615V28.704C220.615 30.3813 221.034 31.6733 221.873 32.58C222.711 33.464 223.856 33.906 225.307 33.906C226.757 33.906 227.902 33.464 228.741 32.58C229.602 31.6733 230.033 30.3813 230.033 28.704V18.266H233.909ZM243.545 21.428V31.798C243.545 32.5007 243.703 33.0107 244.021 33.328C244.361 33.6227 244.927 33.77 245.721 33.77H248.101V37H245.041C243.295 37 241.958 36.592 241.029 35.776C240.099 34.96 239.635 33.634 239.635 31.798V21.428H237.425V18.266H239.635V13.608H243.545V18.266H248.101V21.428H243.545ZM268.843 27.174C268.843 27.8767 268.798 28.5113 268.707 29.078H254.393C254.506 30.574 255.062 31.7753 256.059 32.682C257.056 33.5887 258.28 34.042 259.731 34.042C261.816 34.042 263.29 33.1693 264.151 31.424H268.333C267.766 33.1467 266.735 34.5633 265.239 35.674C263.766 36.762 261.93 37.306 259.731 37.306C257.94 37.306 256.331 36.9093 254.903 36.116C253.498 35.3 252.387 34.1667 251.571 32.716C250.778 31.2427 250.381 29.5427 250.381 27.616C250.381 25.6893 250.766 24.0007 251.537 22.55C252.33 21.0767 253.43 19.9433 254.835 19.15C256.263 18.3567 257.895 17.96 259.731 17.96C261.499 17.96 263.074 18.3453 264.457 19.116C265.84 19.8867 266.916 20.9747 267.687 22.38C268.458 23.7627 268.843 25.3607 268.843 27.174ZM264.797 25.95C264.774 24.522 264.264 23.3773 263.267 22.516C262.27 21.6547 261.034 21.224 259.561 21.224C258.224 21.224 257.079 21.6547 256.127 22.516C255.175 23.3547 254.608 24.4993 254.427 25.95H264.797Z" fill="black"/>
<rect y="199" width="10" height="42" fill="#9B9B9B"/>
<rect x="19.5693" y="199" width="10" height="42" fill="#9B9B9B"/>
<rect x="39.1387" y="199" width="10" height="42" fill="#9B9B9B"/>
<rect x="58.708" y="199" width="10" height="42" fill="#9B9B9B"/>
<rect x="78.2773" y="199" width="10" height="42" fill="#9B9B9B"/>
<rect x="97.8457" y="199" width="10" height="42" fill="#9B9B9B"/>
<rect x="117.415" y="188" width="10" height="53" fill="#9B9B9B"/>
<rect x="136.984" y="188" width="10" height="53" fill="#9B9B9B"/>
<rect x="156.554" y="188" width="10" height="53" fill="#9B9B9B"/>
<rect x="176.123" y="188" width="10" height="53" fill="#9B9B9B"/>
<rect x="195.692" y="188" width="10" height="53" fill="#9B9B9B"/>
<rect x="215.262" y="188" width="10" height="53" fill="#9B9B9B"/>
<rect x="234.831" y="175" width="10" height="66" fill="#9B9B9B"/>
<rect x="254.4" y="175" width="10" height="66" fill="#9B9B9B"/>
<rect x="273.969" y="175" width="10" height="66" fill="#9B9B9B"/>
<rect x="293.538" y="175" width="10" height="66" fill="#9B9B9B"/>
<rect x="313.107" y="175" width="10" height="66" fill="#9B9B9B"/>
<rect x="332.677" y="175" width="10" height="66" fill="#9B9B9B"/>
<rect x="352.246" y="152" width="10" height="89" fill="#9B9B9B"/>
<rect x="371.815" y="152" width="10" height="89" fill="#9B9B9B"/>
<rect x="391.385" y="152" width="10" height="89" fill="#9B9B9B"/>
<rect x="410.954" y="152" width="10" height="89" fill="#9B9B9B"/>
<rect x="430.523" y="152" width="10" height="89" fill="#9B9B9B"/>
<rect x="450.093" y="152" width="10" height="89" fill="#9B9B9B"/>
<rect x="469.662" y="125" width="10" height="116" fill="#9B9B9B"/>
<rect x="489.23" y="125" width="10" height="116" fill="#9B9B9B"/>
<rect x="508.8" y="125" width="10" height="116" fill="#9B9B9B"/>
<rect x="528.369" y="125" width="10" height="116" fill="#9B9B9B"/>
<rect x="547.938" y="125" width="10" height="116" fill="#9B9B9B"/>
<rect x="567.508" y="125" width="10" height="116" fill="#9B9B9B"/>
<rect x="587.077" y="99" width="10" height="142" fill="#9B9B9B"/>
<rect x="606.646" y="99" width="10" height="142" fill="#9B9B9B"/>
<rect x="626.216" y="99" width="10" height="142" fill="#9B9B9B"/>
<rect x="645.785" y="99" width="10" height="142" fill="#9B9B9B"/>
<rect x="665.354" y="99" width="10" height="142" fill="#9B9B9B"/>
<rect x="684.923" y="99" width="10" height="142" fill="#9B9B9B"/>
<rect x="704.492" y="112" width="10" height="129" fill="#9B9B9B"/>
<rect x="724.062" y="112" width="10" height="129" fill="#9B9B9B"/>
<rect x="743.631" y="112" width="10" height="129" fill="#9B9B9B"/>
<rect x="763.2" y="112" width="10" height="129" fill="#9B9B9B"/>
<rect x="782.77" y="112" width="10" height="129" fill="#9B9B9B"/>
<rect x="802.338" y="112" width="10" height="129" fill="#9B9B9B"/>
<rect x="821.907" y="133" width="10" height="108" fill="#9B9B9B"/>
<rect x="841.477" y="133" width="10" height="108" fill="#9B9B9B"/>
<rect x="861.047" y="133" width="10" height="108" fill="#9B9B9B"/>
<rect x="880.615" y="133" width="10" height="108" fill="#9B9B9B"/>
<rect x="900.184" y="133" width="10" height="108" fill="#9B9B9B"/>
<rect x="919.754" y="133" width="10" height="108" fill="#0866FF"/>
<rect x="939.322" y="170" width="10" height="71" fill="#9B9B9B"/>
<rect x="958.893" y="170" width="10" height="71" fill="#9B9B9B"/>
<rect x="978.461" y="170" width="10" height="71" fill="#9B9B9B"/>
<rect x="998.031" y="170" width="10" height="71" fill="#9B9B9B"/>
<rect x="1017.6" y="170" width="10" height="71" fill="#9B9B9B"/>
<rect x="1037.17" y="170" width="10" height="71" fill="#9B9B9B"/>
<rect x="1056.74" y="186" width="10" height="55" fill="#9B9B9B"/>
<rect x="1076.31" y="186" width="10" height="55" fill="#9B9B9B"/>
<rect x="1095.88" y="186" width="10" height="55" fill="#9B9B9B"/>
<rect x="1115.45" y="186" width="10" height="55" fill="#9B9B9B"/>
<rect x="1135.02" y="186" width="10" height="55" fill="#9B9B9B"/>
<rect x="1154.58" y="186" width="10" height="55" fill="#9B9B9B"/>
<rect x="1174.15" y="207" width="10" height="34" fill="#9B9B9B"/>
<rect x="1193.72" y="207" width="10" height="34" fill="#9B9B9B"/>
<rect x="1213.29" y="207" width="10" height="34" fill="#9B9B9B"/>
<rect x="1232.86" y="207" width="10" height="34" fill="#9B9B9B"/>
<rect x="1252.43" y="207" width="10" height="34" fill="#9B9B9B"/>
<rect x="1272" y="207" width="10" height="34" fill="#9B9B9B"/>
<path d="M1.13075 281.64L1.13075 279.648H5.64275L5.64275 297H3.43475L3.43475 281.64H1.13075ZM9.13025 295.248C11.1623 293.616 12.7543 292.28 13.9062 291.24C15.0583 290.184 16.0263 289.088 16.8103 287.952C17.6103 286.8 18.0103 285.672 18.0103 284.568C18.0103 283.528 17.7543 282.712 17.2423 282.12C16.7463 281.512 15.9383 281.208 14.8183 281.208C13.7303 281.208 12.8823 281.552 12.2743 282.24C11.6823 282.912 11.3623 283.816 11.3143 284.952H9.20225C9.26625 283.16 9.81025 281.776 10.8343 280.8C11.8583 279.824 13.1783 279.336 14.7943 279.336C16.4423 279.336 17.7463 279.792 18.7063 280.704C19.6823 281.616 20.1703 282.872 20.1703 284.472C20.1703 285.8 19.7703 287.096 18.9703 288.36C18.1863 289.608 17.2903 290.712 16.2823 291.672C15.2743 292.616 13.9863 293.72 12.4183 294.984H20.6743V296.808H9.13025V295.248ZM23.1989 288.144C23.1989 285.392 23.6469 283.248 24.5429 281.712C25.4389 280.16 27.0069 279.384 29.2469 279.384C31.4709 279.384 33.0309 280.16 33.9269 281.712C34.8229 283.248 35.2709 285.392 35.2709 288.144C35.2709 290.944 34.8229 293.12 33.9269 294.672C33.0309 296.224 31.4709 297 29.2469 297C27.0069 297 25.4389 296.224 24.5429 294.672C23.6469 293.12 23.1989 290.944 23.1989 288.144ZM33.1109 288.144C33.1109 286.752 33.0149 285.576 32.8229 284.616C32.6469 283.64 32.2709 282.856 31.6949 282.264C31.1349 281.672 30.3189 281.376 29.2469 281.376C28.1589 281.376 27.3269 281.672 26.7509 282.264C26.1909 282.856 25.8149 283.64 25.6229 284.616C25.4469 285.576 25.3589 286.752 25.3589 288.144C25.3589 289.584 25.4469 290.792 25.6229 291.768C25.8149 292.744 26.1909 293.528 26.7509 294.12C27.3269 294.712 28.1589 295.008 29.2469 295.008C30.3189 295.008 31.1349 294.712 31.6949 294.12C32.2709 293.528 32.6469 292.744 32.8229 291.768C33.0149 290.792 33.1109 289.584 33.1109 288.144Z" fill="#020202"/>
<path d="M310.975 281.64V279.648H315.487V297H313.279V281.64H310.975ZM318.71 293.136V291.48L327.134 279.816H329.75V291.24H332.15V293.136H329.75V297H327.59V293.136H318.71ZM327.686 282.096L321.23 291.24H327.686V282.096ZM333.804 293.136V291.48L342.228 279.816H344.844V291.24H347.244V293.136H344.844V297H342.684V293.136H333.804ZM342.78 282.096L336.324 291.24H342.78V282.096Z" fill="#020202"/>
<path d="M621.986 281.64V279.648H626.498V297H624.29V281.64H621.986ZM641.314 281.544H632.89V287.016C633.258 286.504 633.802 286.088 634.522 285.768C635.242 285.432 636.018 285.264 636.85 285.264C638.178 285.264 639.258 285.544 640.09 286.104C640.922 286.648 641.514 287.36 641.866 288.24C642.234 289.104 642.418 290.024 642.418 291C642.418 292.152 642.202 293.184 641.77 294.096C641.338 295.008 640.674 295.728 639.778 296.256C638.898 296.784 637.802 297.048 636.49 297.048C634.81 297.048 633.45 296.616 632.41 295.752C631.37 294.888 630.738 293.736 630.514 292.296H632.65C632.858 293.208 633.298 293.92 633.97 294.432C634.642 294.944 635.49 295.2 636.514 295.2C637.778 295.2 638.73 294.824 639.37 294.072C640.01 293.304 640.33 292.296 640.33 291.048C640.33 289.8 640.01 288.84 639.37 288.168C638.73 287.48 637.786 287.136 636.538 287.136C635.69 287.136 634.946 287.344 634.306 287.76C633.682 288.16 633.226 288.712 632.938 289.416H630.874V279.624H641.314V281.544ZM644.792 293.136V291.48L653.216 279.816H655.832V291.24H658.232V293.136H655.832V297H653.672V293.136H644.792ZM653.768 282.096L647.312 291.24H653.768V282.096Z" fill="#020202"/>
<path d="M933.381 281.64V279.648H937.893V297H935.685V281.64H933.381ZM951.316 283.776C950.964 282 949.868 281.112 948.028 281.112C946.604 281.112 945.54 281.664 944.836 282.768C944.132 283.856 943.788 285.656 943.804 288.168C944.172 287.336 944.78 286.688 945.628 286.224C946.492 285.744 947.452 285.504 948.508 285.504C950.156 285.504 951.468 286.016 952.444 287.04C953.436 288.064 953.932 289.48 953.932 291.288C953.932 292.376 953.716 293.352 953.284 294.216C952.868 295.08 952.228 295.768 951.364 296.28C950.516 296.792 949.484 297.048 948.268 297.048C946.62 297.048 945.332 296.68 944.404 295.944C943.476 295.208 942.828 294.192 942.46 292.896C942.092 291.6 941.908 290 941.908 288.096C941.908 282.224 943.956 279.288 948.052 279.288C949.62 279.288 950.852 279.712 951.748 280.56C952.644 281.408 953.172 282.48 953.332 283.776H951.316ZM948.052 287.352C947.364 287.352 946.716 287.496 946.108 287.784C945.5 288.056 945.004 288.48 944.62 289.056C944.252 289.616 944.068 290.304 944.068 291.12C944.068 292.336 944.42 293.328 945.124 294.096C945.828 294.848 946.836 295.224 948.148 295.224C949.268 295.224 950.156 294.88 950.812 294.192C951.484 293.488 951.82 292.544 951.82 291.36C951.82 290.112 951.5 289.136 950.86 288.432C950.22 287.712 949.284 287.352 948.052 287.352ZM960.047 287.976C959.151 287.624 958.463 287.112 957.983 286.44C957.503 285.768 957.263 284.952 957.263 283.992C957.263 283.128 957.479 282.352 957.911 281.664C958.343 280.96 958.983 280.408 959.831 280.008C960.695 279.592 961.735 279.384 962.951 279.384C964.167 279.384 965.199 279.592 966.047 280.008C966.911 280.408 967.559 280.96 967.991 281.664C968.439 282.352 968.663 283.128 968.663 283.992C968.663 284.92 968.415 285.736 967.919 286.44C967.423 287.128 966.743 287.64 965.879 287.976C966.871 288.28 967.655 288.816 968.231 289.584C968.823 290.336 969.119 291.248 969.119 292.32C969.119 293.36 968.863 294.272 968.351 295.056C967.839 295.824 967.111 296.424 966.167 296.856C965.239 297.272 964.167 297.48 962.951 297.48C961.735 297.48 960.663 297.272 959.735 296.856C958.823 296.424 958.111 295.824 957.599 295.056C957.087 294.272 956.831 293.36 956.831 292.32C956.831 291.248 957.119 290.328 957.695 289.56C958.271 288.792 959.055 288.264 960.047 287.976ZM966.551 284.256C966.551 283.28 966.231 282.528 965.591 282C964.951 281.472 964.071 281.208 962.951 281.208C961.847 281.208 960.975 281.472 960.335 282C959.695 282.528 959.375 283.288 959.375 284.28C959.375 285.176 959.703 285.896 960.359 286.44C961.031 286.984 961.895 287.256 962.951 287.256C964.023 287.256 964.887 286.984 965.543 286.44C966.215 285.88 966.551 285.152 966.551 284.256ZM962.951 288.936C961.767 288.936 960.799 289.216 960.047 289.776C959.295 290.32 958.919 291.144 958.919 292.248C958.919 293.272 959.279 294.096 959.999 294.72C960.735 295.344 961.719 295.656 962.951 295.656C964.183 295.656 965.159 295.344 965.879 294.72C966.599 294.096 966.959 293.272 966.959 292.248C966.959 291.176 966.591 290.36 965.855 289.8C965.119 289.224 964.151 288.936 962.951 288.936Z" fill="#020202"/>
<path d="M1244.96 281.64V279.648H1249.47V297H1247.27V281.64H1244.96ZM1256.39 287.976C1255.5 287.624 1254.81 287.112 1254.33 286.44C1253.85 285.768 1253.61 284.952 1253.61 283.992C1253.61 283.128 1253.83 282.352 1254.26 281.664C1254.69 280.96 1255.33 280.408 1256.18 280.008C1257.04 279.592 1258.08 279.384 1259.3 279.384C1260.51 279.384 1261.55 279.592 1262.39 280.008C1263.26 280.408 1263.91 280.96 1264.34 281.664C1264.79 282.352 1265.01 283.128 1265.01 283.992C1265.01 284.92 1264.76 285.736 1264.27 286.44C1263.77 287.128 1263.09 287.64 1262.23 287.976C1263.22 288.28 1264 288.816 1264.58 289.584C1265.17 290.336 1265.47 291.248 1265.47 292.32C1265.47 293.36 1265.21 294.272 1264.7 295.056C1264.19 295.824 1263.46 296.424 1262.51 296.856C1261.59 297.272 1260.51 297.48 1259.3 297.48C1258.08 297.48 1257.01 297.272 1256.08 296.856C1255.17 296.424 1254.46 295.824 1253.95 295.056C1253.43 294.272 1253.18 293.36 1253.18 292.32C1253.18 291.248 1253.47 290.328 1254.04 289.56C1254.62 288.792 1255.4 288.264 1256.39 287.976ZM1262.9 284.256C1262.9 283.28 1262.58 282.528 1261.94 282C1261.3 281.472 1260.42 281.208 1259.3 281.208C1258.19 281.208 1257.32 281.472 1256.68 282C1256.04 282.528 1255.72 283.288 1255.72 284.28C1255.72 285.176 1256.05 285.896 1256.71 286.44C1257.38 286.984 1258.24 287.256 1259.3 287.256C1260.37 287.256 1261.23 286.984 1261.89 286.44C1262.56 285.88 1262.9 285.152 1262.9 284.256ZM1259.3 288.936C1258.11 288.936 1257.15 289.216 1256.39 289.776C1255.64 290.32 1255.27 291.144 1255.27 292.248C1255.27 293.272 1255.63 294.096 1256.35 294.72C1257.08 295.344 1258.07 295.656 1259.3 295.656C1260.53 295.656 1261.51 295.344 1262.23 294.72C1262.95 294.096 1263.31 293.272 1263.31 292.248C1263.31 291.176 1262.94 290.36 1262.2 289.8C1261.47 289.224 1260.5 288.936 1259.3 288.936ZM1268.37 288.144C1268.37 285.392 1268.81 283.248 1269.71 281.712C1270.61 280.16 1272.17 279.384 1274.41 279.384C1276.64 279.384 1278.2 280.16 1279.09 281.712C1279.99 283.248 1280.44 285.392 1280.44 288.144C1280.44 290.944 1279.99 293.12 1279.09 294.672C1278.2 296.224 1276.64 297 1274.41 297C1272.17 297 1270.61 296.224 1269.71 294.672C1268.81 293.12 1268.37 290.944 1268.37 288.144ZM1278.28 288.144C1278.28 286.752 1278.18 285.576 1277.99 284.616C1277.81 283.64 1277.44 282.856 1276.86 282.264C1276.3 281.672 1275.49 281.376 1274.41 281.376C1273.33 281.376 1272.49 281.672 1271.92 282.264C1271.36 282.856 1270.98 283.64 1270.79 284.616C1270.61 285.576 1270.53 286.752 1270.53 288.144C1270.53 289.584 1270.61 290.792 1270.79 291.768C1270.98 292.744 1271.36 293.528 1271.92 294.12C1272.49 294.712 1273.33 295.008 1274.41 295.008C1275.49 295.008 1276.3 294.712 1276.86 294.12C1277.44 293.528 1277.81 292.744 1277.99 291.768C1278.18 290.792 1278.28 289.584 1278.28 288.144Z" fill="#020202"/>
</svg>
