<svg width="36" height="36" viewBox="0 0 36 36" fill="none" xmlns="http://www.w3.org/2000/svg">
<path d="M10.5 25.5H13.5C13.925 25.5 14.2815 25.644 14.5695 25.932C14.8575 26.22 15.001 26.576 15 27C14.999 27.424 14.855 27.7805 14.568 28.0695C14.281 28.3585 13.925 28.502 13.5 28.5H9C8.575 28.5 8.219 28.356 7.932 28.068C7.645 27.78 7.501 27.424 7.5 27V22.5C7.5 22.075 7.644 21.719 7.932 21.432C8.22 21.145 8.576 21.001 9 21C9.424 20.999 9.7805 21.143 10.0695 21.432C10.3585 21.721 10.502 22.077 10.5 22.5V25.5ZM10.5 10.5V13.5C10.5 13.925 10.356 14.2815 10.068 14.5695C9.78 14.8575 9.424 15.001 9 15C8.576 14.999 8.22 14.855 7.932 14.568C7.644 14.281 7.5 13.925 7.5 13.5V9C7.5 8.575 7.644 8.219 7.932 7.932C8.22 7.645 8.576 7.501 9 7.5H13.5C13.925 7.5 14.2815 7.644 14.5695 7.932C14.8575 8.22 15.001 8.576 15 9C14.999 9.424 14.855 9.7805 14.568 10.0695C14.281 10.3585 13.925 10.502 13.5 10.5H10.5ZM25.5 10.5H22.5C22.075 10.5 21.719 10.356 21.432 10.068C21.145 9.78 21.001 9.424 21 9C20.999 8.576 21.143 8.22 21.432 7.932C21.721 7.644 22.077 7.5 22.5 7.5H27C27.425 7.5 27.7815 7.644 28.0695 7.932C28.3575 8.22 28.501 8.576 28.5 9V13.5C28.5 13.925 28.356 14.2815 28.068 14.5695C27.78 14.8575 27.424 15.001 27 15C26.576 14.999 26.22 14.855 25.932 14.568C25.644 14.281 25.5 13.925 25.5 13.5V10.5ZM25.5 28.5H22.5C22.075 28.5 21.719 28.356 21.432 28.068C21.145 27.78 21.001 27.424 21 27C20.999 26.576 21.143 26.22 21.432 25.932C21.721 25.644 22.077 25.5 22.5 25.5H25.5V22.5C25.5 22.075 25.644 21.719 25.932 21.432C26.22 21.145 26.576 21.001 27 21C27.424 20.999 27.7805 21.143 28.0695 21.432C28.3585 21.721 28.502 22.077 28.5 22.5V25.5H31.5C31.925 25.5 32.2815 25.644 32.5695 25.932C32.8575 26.22 33.001 26.576 33 27C32.999 27.424 32.855 27.7805 32.568 28.0695C32.281 28.3585 31.925 28.502 31.5 28.5H28.5V31.5C28.5 31.925 28.356 32.2815 28.068 32.5695C27.78 32.8575 27.424 33.001 27 33C26.576 32.999 26.22 32.855 25.932 32.568C25.644 32.281 25.5 31.925 25.5 31.5V28.5Z" fill="black"/>
</svg>
