<svg viewBox="0 0 185 151" fill="none" xmlns="http://www.w3.org/2000/svg">
<g clip-path="url(#clip0_270_1889)">
<path d="M66.9813 38.7109C68.653 37.3179 69.9851 36.1599 70.9777 35.237C71.9702 34.2966 72.7974 33.3215 73.4591 32.3115C74.1208 31.3016 74.4516 30.309 74.4516 29.3338C74.4516 28.4458 74.2427 27.7492 73.8248 27.2443C73.4068 26.7393 72.7625 26.4868 71.8919 26.4868C71.0212 26.4868 70.3508 26.7828 69.8806 27.3748C69.4105 27.9495 69.1667 28.7418 69.1493 29.7518H65.597C65.6666 27.6622 66.2848 26.0776 67.4515 24.9979C68.6356 23.9183 70.1331 23.3785 71.9441 23.3785C73.9292 23.3785 75.4529 23.9096 76.5151 24.9718C77.5773 26.0166 78.1084 27.401 78.1084 29.1249C78.1084 30.4831 77.7428 31.7804 77.0114 33.0168C76.28 34.2531 75.4442 35.3327 74.5039 36.2557C73.5636 37.1611 72.3359 38.2582 70.821 39.5468H78.5264V42.5767H65.6231V39.8602L66.9813 38.7109ZM82.868 43.0207C82.2063 43.0207 81.6578 42.8205 81.2224 42.42C80.8045 42.0021 80.5956 41.4884 80.5956 40.8789C80.5956 40.2694 80.8045 39.7644 81.2224 39.3639C81.6578 38.946 82.2063 38.7371 82.868 38.7371C83.5123 38.7371 84.0434 38.946 84.4613 39.3639C84.8792 39.7644 85.0882 40.2694 85.0882 40.8789C85.0882 41.4884 84.8792 42.0021 84.4613 42.42C84.0434 42.8205 83.5123 43.0207 82.868 43.0207ZM82.868 32.2071C82.2063 32.2071 81.6578 32.0068 81.2224 31.6063C80.8045 31.1884 80.5956 30.6747 80.5956 30.0652C80.5956 29.4557 80.8045 28.9508 81.2224 28.5502C81.6578 28.1323 82.2063 27.9234 82.868 27.9234C83.5123 27.9234 84.0434 28.1323 84.4613 28.5502C84.8792 28.9508 85.0882 29.4557 85.0882 30.0652C85.0882 30.6747 84.8792 31.1884 84.4613 31.6063C84.0434 32.0068 83.5123 32.2071 82.868 32.2071ZM87.5355 39.1289V36.2557L96.0768 24.0315H100.334V35.9422H102.633V39.1289H100.334V42.8379H96.6775V39.1289H87.5355ZM96.9126 27.9495L91.558 35.9422H96.9126V27.9495ZM117.76 26.9569H109.297V31.4235C109.663 30.9707 110.185 30.605 110.864 30.3264C111.543 30.0304 112.266 29.8824 113.032 29.8824C114.425 29.8824 115.566 30.1871 116.454 30.7966C117.342 31.406 117.986 32.1896 118.387 33.1474C118.787 34.0877 118.987 35.0977 118.987 36.1773C118.987 38.1798 118.413 39.7906 117.264 41.0095C116.132 42.2284 114.512 42.8379 112.405 42.8379C110.42 42.8379 108.835 42.3416 107.651 41.3491C106.467 40.3565 105.797 39.0592 105.64 37.4572H109.192C109.349 38.1537 109.697 38.7109 110.237 39.1289C110.794 39.5468 111.5 39.7557 112.353 39.7557C113.38 39.7557 114.155 39.4336 114.678 38.7893C115.2 38.145 115.461 37.2917 115.461 36.2295C115.461 35.1499 115.191 34.3315 114.652 33.7743C114.129 33.1996 113.354 32.9123 112.327 32.9123C111.596 32.9123 110.986 33.0951 110.498 33.4608C110.011 33.8265 109.663 34.3141 109.454 34.9235H105.954V23.7442H117.76V26.9569Z" fill="#0866FF"/>
<path fill-rule="evenodd" clip-rule="evenodd" d="M0.485584 151C0.485584 151 0.179641 80.9962 0.485584 80.3229C2.76446 75.3073 5.95781 70.4802 8.22957 70.1339C12.0947 69.5449 14.2979 77.5409 18.7393 77.5409C23.1806 77.5409 27.7272 70.6808 33.3975 70.1339C39.0679 69.587 42.5903 74.7589 47.5826 74.7589C52.5749 74.7589 58.2965 55.2852 63.8776 55.2852C69.4587 55.2852 74.8076 85.8868 82.262 85.8868C89.7165 85.8868 91.229 59.9558 95.9166 59.9558C100.604 59.9558 103.727 69.1255 108.229 69.5775C112.732 70.0296 112.732 77.5409 116.527 77.5409C120.321 77.5409 125.753 52.8379 131.732 52.8379C137.71 52.8379 144.616 70.3839 148.89 70.3839C153.164 70.3839 150.821 58.0671 155.88 58.0671C160.939 58.0671 157.219 69.0211 162.28 69.5775C167.34 70.1339 171.463 74.7589 176.385 74.7589C177.805 74.7589 179.753 73.7586 181.174 70.9403C182.595 68.1219 183.875 63.5929 183.875 63.5929H184.499C184.499 63.5929 184.499 65.6375 184.499 66.2283C184.499 72.6855 184.499 151 184.499 151H0.485584Z" fill="url(#paint0_linear_270_1889)" fill-opacity="0.2"/>
<path d="M0.333008 80.3229C0.333008 80.3229 4.23467 70.723 8.12253 70.1339C12.0104 69.5449 14.2266 77.5409 18.694 77.5409C23.1615 77.5409 27.7348 70.6808 33.4385 70.1339C39.1421 69.587 42.6852 74.7589 47.7069 74.7589C52.7286 74.7589 58.4838 55.2852 64.0977 55.2852C69.7117 55.2852 75.0919 85.8868 82.5902 85.8868C90.0885 85.8868 91.6099 59.9558 96.3251 59.9558C101.04 59.9558 104.181 69.6819 108.71 70.1339C113.24 70.586 112.939 77.5409 117.056 77.5409C121.174 77.5409 125.777 52.8379 131.791 52.8379C137.805 52.8379 144.035 70.1339 148.334 70.1339C152.633 70.1339 150.976 58.0671 156.065 58.0671C161.153 58.0671 158.097 70.1339 163.078 70.1339C168.06 70.1339 171.759 74.7589 176.71 74.7589C181.661 74.7589 184.499 63.6159 184.499 63.6159" stroke="#0866FF" stroke-width="2"/>
</g>
<rect x="1" y="0.5" width="182.833" height="150" rx="9.5" stroke="#E5E7EB"/>
<defs>
<linearGradient id="paint0_linear_270_1889" x1="8.74446" y1="62.7181" x2="8.74446" y2="151" gradientUnits="userSpaceOnUse">
<stop stop-color="#0866FF"/>
<stop offset="1" stop-color="#0866FF" stop-opacity="0"/>
</linearGradient>
<clipPath id="clip0_270_1889">
<rect x="0.5" width="183.833" height="151" rx="10" fill="white"/>
</clipPath>
</defs>
</svg>
