<svg width="184" height="100" viewBox="0 0 184 100" fill="none" xmlns="http://www.w3.org/2000/svg">
<path fill-rule="evenodd" clip-rule="evenodd" d="M-0.0144157 100C-0.0144157 100 -0.320359 29.9962 -0.0144157 29.3229C2.26446 24.3073 5.45781 19.4802 7.72957 19.1339C11.5947 18.5449 13.7979 26.5409 18.2393 26.5409C22.6806 26.5409 27.2272 19.6808 32.8975 19.1339C38.5679 18.587 42.0903 23.7589 47.0826 23.7589C52.0749 23.7589 57.7965 4.28516 63.3776 4.28516C68.9587 4.28516 74.3076 34.8868 81.762 34.8868C89.2165 34.8868 90.729 8.95582 95.4166 8.95582C100.104 8.95582 103.227 18.1255 107.729 18.5775C112.232 19.0296 112.232 26.5409 116.027 26.5409C119.821 26.5409 125.253 1.83789 131.232 1.83789C137.21 1.83789 144.116 19.3839 148.39 19.3839C152.664 19.3839 150.321 7.06713 155.38 7.06713C160.439 7.06713 156.719 18.0211 161.78 18.5775C166.84 19.1339 170.963 23.7589 175.885 23.7589C177.305 23.7589 179.253 22.7586 180.674 19.9403C182.095 17.1219 183.375 12.5929 183.375 12.5929H183.999C183.999 12.5929 183.999 14.6375 183.999 15.2283C183.999 21.6855 183.999 100 183.999 100H-0.0144157Z" fill="url(#paint0_linear_278_628)" fill-opacity="0.2"/>
<path d="M-0.166992 29.3229C-0.166992 29.3229 3.73467 19.723 7.62253 19.1339C11.5104 18.5449 13.7266 26.5409 18.194 26.5409C22.6615 26.5409 27.2348 19.6808 32.9385 19.1339C38.6421 18.587 42.1852 23.7589 47.2069 23.7589C52.2286 23.7589 57.9838 4.28516 63.5977 4.28516C69.2117 4.28516 74.5919 34.8868 82.0902 34.8868C89.5885 34.8868 91.1099 8.95582 95.8251 8.95582C100.54 8.95582 103.681 18.6819 108.21 19.1339C112.74 19.586 112.439 26.5409 116.556 26.5409C120.674 26.5409 125.277 1.83789 131.291 1.83789C137.305 1.83789 143.535 19.1339 147.834 19.1339C152.133 19.1339 150.476 7.06713 155.565 7.06713C160.653 7.06713 157.597 19.1339 162.578 19.1339C167.56 19.1339 171.259 23.7589 176.21 23.7589C181.161 23.7589 183.999 12.6159 183.999 12.6159" stroke="#0866FF" stroke-width="2"/>
<defs>
<linearGradient id="paint0_linear_278_628" x1="8.24446" y1="11.7181" x2="8.24446" y2="100" gradientUnits="userSpaceOnUse">
<stop stop-color="#0866FF"/>
<stop offset="1" stop-color="#0866FF" stop-opacity="0"/>
</linearGradient>
</defs>
</svg>
