<svg width="128" height="45" viewBox="0 0 128 45" fill="none" xmlns="http://www.w3.org/2000/svg">
<rect x="0.5" y="1.47156" width="127" height="42.0569" rx="7.5" stroke="#020202"/>
<path d="M39.7684 18.1021C36.8632 15.5442 27.1368 15.5442 24.2316 18.1021C22.8316 19.3442 22 21.7653 22 24.6074C22 27.4495 22.8316 29.8706 24.2316 31.1127C25.6316 32.3548 28.8421 33.0285 32 33.0285C35.1579 33.0285 38.3158 32.3969 39.7684 31.1127C41.1684 29.8706 42 27.4495 42 24.6074C42 21.7653 41.1684 19.3442 39.7684 18.1021ZM34.7789 25.3758L30.7053 27.4074C30.5757 27.4717 30.4319 27.502 30.2875 27.4954C30.143 27.4888 30.0026 27.4456 29.8794 27.3698C29.7563 27.294 29.6544 27.1881 29.5834 27.0621C29.5124 26.9361 29.4747 26.7941 29.4737 26.6495V22.5653C29.4747 22.4207 29.5124 22.2787 29.5834 22.1527C29.6544 22.0267 29.7563 21.9208 29.8794 21.845C30.0026 21.7692 30.143 21.726 30.2875 21.7194C30.4319 21.7129 30.5757 21.7431 30.7053 21.8074L34.7789 23.839C34.9204 23.9114 35.0392 24.0214 35.1221 24.157C35.2051 24.2926 35.249 24.4485 35.249 24.6074C35.249 24.7663 35.2051 24.9222 35.1221 25.0578C35.0392 25.1934 34.9204 25.3034 34.7789 25.3758Z" fill="#020202"/>
<path d="M31.9999 18.2917C31.8614 18.2925 31.724 18.2659 31.5958 18.2135C31.4675 18.1611 31.3509 18.084 31.2525 17.9864L27.042 13.7759C26.9438 13.6777 26.866 13.5612 26.8129 13.433C26.7598 13.3047 26.7324 13.1673 26.7324 13.0285C26.7324 12.7482 26.8438 12.4793 27.042 12.2811C27.2402 12.0829 27.509 11.9716 27.7894 11.9716C27.9282 11.9716 28.0656 11.9989 28.1938 12.052C28.3221 12.1051 28.4386 12.183 28.5367 12.2811L31.9999 15.7548L35.463 12.2811C35.6613 12.0829 35.9301 11.9716 36.2104 11.9716C36.4907 11.9716 36.7596 12.0829 36.9578 12.2811C37.156 12.4793 37.2674 12.7482 37.2674 13.0285C37.2674 13.3088 37.156 13.5777 36.9578 13.7759L32.7473 17.9864C32.6489 18.084 32.5322 18.1611 32.404 18.2135C32.2757 18.2659 32.1384 18.2925 31.9999 18.2917Z" fill="#020202"/>
<path d="M68.032 16.832L64.912 28H62.272L60.176 20.048L57.984 28L55.36 28.016L52.352 16.832H54.752L56.72 25.504L58.992 16.832H61.488L63.632 25.456L65.616 16.832H68.032ZM68.9186 23.536C68.9186 22.64 69.0946 21.8453 69.4466 21.152C69.8093 20.4587 70.2946 19.9253 70.9026 19.552C71.5213 19.1787 72.2093 18.992 72.9666 18.992C73.628 18.992 74.204 19.1253 74.6946 19.392C75.196 19.6587 75.596 19.9947 75.8946 20.4V19.136H78.1506V28H75.8946V26.704C75.6066 27.12 75.2066 27.4667 74.6946 27.744C74.1933 28.0107 73.612 28.144 72.9506 28.144C72.204 28.144 71.5213 27.952 70.9026 27.568C70.2946 27.184 69.8093 26.6453 69.4466 25.952C69.0946 25.248 68.9186 24.4427 68.9186 23.536ZM75.8946 23.568C75.8946 23.024 75.788 22.56 75.5746 22.176C75.3613 21.7813 75.0733 21.4827 74.7106 21.28C74.348 21.0667 73.9586 20.96 73.5426 20.96C73.1266 20.96 72.7426 21.0613 72.3906 21.264C72.0386 21.4667 71.7506 21.7653 71.5266 22.16C71.3133 22.544 71.2066 23.0027 71.2066 23.536C71.2066 24.0693 71.3133 24.5387 71.5266 24.944C71.7506 25.3387 72.0386 25.6427 72.3906 25.856C72.7533 26.0693 73.1373 26.176 73.5426 26.176C73.9586 26.176 74.348 26.0747 74.7106 25.872C75.0733 25.6587 75.3613 25.36 75.5746 24.976C75.788 24.5813 75.8946 24.112 75.8946 23.568ZM82.9464 20.976V25.264C82.9464 25.5627 83.0157 25.7813 83.1544 25.92C83.3037 26.048 83.549 26.112 83.8904 26.112H84.9304V28H83.5224C81.6344 28 80.6904 27.0827 80.6904 25.248V20.976H79.6344V19.136H80.6904V16.944H82.9464V19.136H84.9304V20.976H82.9464ZM85.9655 23.568C85.9655 22.6507 86.1522 21.8507 86.5255 21.168C86.8988 20.4747 87.4162 19.9413 88.0775 19.568C88.7388 19.184 89.4962 18.992 90.3495 18.992C91.4482 18.992 92.3548 19.2693 93.0695 19.824C93.7948 20.368 94.2802 21.136 94.5255 22.128H92.1095C91.9815 21.744 91.7628 21.4453 91.4535 21.232C91.1548 21.008 90.7815 20.896 90.3335 20.896C89.6935 20.896 89.1868 21.1307 88.8135 21.6C88.4402 22.0587 88.2535 22.7147 88.2535 23.568C88.2535 24.4107 88.4402 25.0667 88.8135 25.536C89.1868 25.9947 89.6935 26.224 90.3335 26.224C91.2402 26.224 91.8322 25.8187 92.1095 25.008H94.5255C94.2802 25.968 93.7948 26.7307 93.0695 27.296C92.3442 27.8613 91.4375 28.144 90.3495 28.144C89.4962 28.144 88.7388 27.9573 88.0775 27.584C87.4162 27.2 86.8988 26.6667 86.5255 25.984C86.1522 25.2907 85.9655 24.4853 85.9655 23.568ZM101.159 19.008C101.831 19.008 102.428 19.1573 102.951 19.456C103.473 19.744 103.879 20.176 104.167 20.752C104.465 21.3173 104.615 22 104.615 22.8V28H102.375V23.104C102.375 22.4 102.199 21.8613 101.847 21.488C101.495 21.104 101.015 20.912 100.407 20.912C99.7878 20.912 99.2972 21.104 98.9345 21.488C98.5825 21.8613 98.4065 22.4 98.4065 23.104V28H96.1665V16.16H98.4065V20.24C98.6945 19.856 99.0785 19.5573 99.5585 19.344C100.039 19.12 100.572 19.008 101.159 19.008Z" fill="#020202"/>
</svg>
