<svg width="21" height="21" viewBox="0 0 21 21" fill="none" xmlns="http://www.w3.org/2000/svg">
<rect width="20" height="20" transform="translate(0.571533 0.77002)" fill="#020202"/>
<g clip-path="url(#clip0_113_736)">
<path d="M16.5239 9.46049H15.5954V6.98431C15.5954 6.30027 15.0413 5.7462 14.3572 5.7462H11.8811V4.81763C11.8811 3.96334 11.1877 3.27002 10.3334 3.27002C9.47914 3.27002 8.78582 3.96334 8.78582 4.81763V5.7462H6.30964C5.6256 5.7462 5.07774 6.30024 5.07774 6.98431L5.07464 9.3367H6.0001C6.9225 9.3367 7.67153 10.0857 7.67153 11.0081C7.67153 11.9305 6.9225 12.6796 6.0001 12.6796H5.07464L5.07153 15.0319C5.07153 15.716 5.62557 16.27 6.30964 16.27H8.66203V15.3414C8.66203 14.4191 9.41107 13.67 10.3335 13.67C11.2558 13.67 12.0049 14.4191 12.0049 15.3414V16.27H14.3572C15.0413 16.27 15.5954 15.716 15.5954 15.0319V12.5557H16.5239C17.3782 12.5557 18.0715 11.8624 18.0715 11.0081C18.0715 10.1538 17.3782 9.46049 16.5239 9.46049Z" fill="white"/>
</g>
<defs>
<clipPath id="clip0_113_736">
<rect width="13" height="13" fill="white" transform="translate(5.07153 3.27002)"/>
</clipPath>
</defs>
</svg>
