<svg width="18" height="19" viewBox="0 0 18 19" fill="none" xmlns="http://www.w3.org/2000/svg">
<path d="M9 18.77C13.9706 18.77 18 14.7406 18 9.77002C18 4.79946 13.9706 0.77002 9 0.77002C4.02944 0.77002 0 4.79946 0 9.77002C0 14.7406 4.02944 18.77 9 18.77Z" fill="#979797"/>
<path d="M17.8623 11.3479L12.5217 5.94922L7.30255 6.67284L5.7041 14.5898L9.84463 18.7303C13.8937 18.3535 17.1643 15.2951 17.8623 11.3479Z" fill="#494949"/>
<path d="M11.2834 11.0379C12.4949 10.604 13.3643 9.44422 13.3643 8.08543C13.3643 6.3568 11.958 4.9502 10.2294 4.9502H5.7041V14.5897H7.74316V11.2203H8.97715L11.141 14.5897H13.5643L11.2834 11.0379ZM10.2294 9.18125H7.74316V6.98926H10.2294C10.8334 6.98926 11.3252 7.48109 11.3252 8.08543C11.3252 8.68977 10.8334 9.18125 10.2294 9.18125Z" fill="#F8FFFB"/>
</svg>
